<svg width="210" height="142" viewBox="0 0 210 142" fill="none" xmlns="http://www.w3.org/2000/svg">
<g id="Boolean image">
<g id="Boolean image 266&#209;&#133;165">
<path id="Vector" d="M128.228 72.6449C103.421 72.1816 78.5602 72.6449 53.7497 72.6417C44.7958 72.6417 35.845 72.6417 26.8911 72.6417C48.8044 72.6417 70.7146 72.6417 92.6279 72.6449C102.069 72.6449 111.522 72.5071 120.963 72.6449C127.888 72.7482 133.891 75.5655 138.553 80.7182C145.315 88.1905 148.112 98.6178 147.775 108.544C147.151 123.016 138.215 140.806 121.709 140.866C130.339 140.835 137.628 140.543 144.21 134.226C150.675 128.019 153.96 119.075 154.696 110.266L154.796 108.532C155.358 92.4635 146.392 72.983 128.225 72.6449H128.228Z" fill="#282C34"/>
<path id="Vector_2" d="M112.887 1.18715C124.557 0.805237 136.29 1.1308 147.966 1.10263C155.674 1.08384 163.289 0.257416 169.989 4.85285C177.182 9.78637 181.39 18.2166 182.882 26.6499C183.319 29.1198 183.522 31.6147 183.538 34.1222C183.538 50.1968 175.696 69.1733 157.17 69.3423C144.348 69.4613 131.522 69.3423 118.7 69.3423" fill="#FF59A3"/>
<path id="Vector_3" d="M64.8986 2.22335C60.6901 0.924234 56.1913 1.30614 51.8486 1.29362C64.5021 1.29362 73.3093 12.6789 76.347 23.9734C77.4147 27.9428 77.883 32.0593 77.8112 36.1663C77.5146 50.7603 68.6169 69.3267 51.8486 69.3455C59.0074 69.3455 65.345 69.502 71.3923 65.1383C76.6685 61.3317 80.3556 55.5905 82.4879 49.4987C83.8897 45.4981 84.6484 41.2846 84.8169 37.0491L84.8419 36.1757C85.0823 22.7713 78.8071 6.51514 64.8986 2.22022V2.22335Z" fill="#282C34"/>
<path id="Vector_4" d="M147.775 108.548C148.184 96.9275 144.135 84.0615 134.428 76.9805C126.808 71.4209 117.542 72.648 108.653 72.648C89.8963 72.648 71.1393 72.6481 52.3823 72.6449C45.3235 72.6449 38.2647 72.6449 31.2058 72.6449C27.6623 72.6449 24.172 72.5134 20.744 73.6153C-2.92387 81.2191 -4.38185 118.349 11.403 133.851C18.4306 140.753 26.5103 140.637 35.611 140.659C53.7966 140.703 71.9822 140.747 90.1679 140.791C98.1227 140.81 106.074 140.828 114.029 140.85C117.485 140.86 121.11 141.148 124.55 140.672C135.918 139.1 143.526 128.548 146.336 118.117C147.179 114.993 147.641 111.781 147.781 108.548H147.775Z" fill="white" stroke="#282C34" stroke-miterlimit="10"/>
<path id="Vector_5" d="M95.6594 106.726C95.5876 121.83 86.7867 137.062 70.4586 137.062C57.6491 137.062 44.8364 137.003 32.0237 136.975C25.1616 136.959 19.2485 136.49 13.8599 131.647C1.50617 120.546 0.64762 98.8058 10.1791 85.7144C14.2564 80.1142 20.1039 76.5079 27.0785 76.317C39.0732 75.9851 51.1241 76.3201 63.1219 76.3232C70.3025 76.3232 77.3333 75.6001 83.5117 79.9952C90.0429 84.6376 93.8205 92.4573 95.1162 100.218C95.4752 102.368 95.6469 104.544 95.6563 106.726H95.6594Z" fill="#282C34" stroke="#282C34" stroke-miterlimit="10"/>
<path id="Vector_6" d="M190.347 73.7249C186.167 72.3224 181.805 72.6605 177.459 72.6605C194.677 73.2522 203.25 92.7484 202.976 107.74C202.679 122.256 193.975 140.465 177.459 140.991C184.571 140.966 190.747 140.957 196.7 136.58C201.927 132.736 205.573 126.995 207.687 120.913C209.06 116.956 209.8 112.786 209.969 108.604L209.994 107.727C210.234 94.3574 204.04 78.314 190.35 73.7249H190.347Z" fill="#FF59A3"/>
<g id="Group">
<path id="Vector_7" d="M118.423 27.7454V23.0905L111.395 23.0748V27.7329C113.737 27.7391 116.081 27.7423 118.423 27.7485V27.7454Z" stroke="#282C34" stroke-miterlimit="10"/>
<path id="Vector_8" d="M117.602 48.1557C113.927 48.1557 110.253 48.1557 106.578 48.1494C110.253 48.1494 113.927 48.1494 117.602 48.1557Z" stroke="#282C34" stroke-miterlimit="10"/>
<path id="Vector_9" d="M113.606 23.0968L117.602 23.0905C113.927 23.0811 110.253 23.0749 106.578 23.0811L113.606 23.0968Z" stroke="#282C34" stroke-miterlimit="10"/>
<path id="Vector_10" d="M104.423 27.7674V23.1156L97.3955 23.1V27.7549L104.423 27.7705V27.7674Z" stroke="#282C34" stroke-miterlimit="10"/>
<path id="Vector_11" d="M112.163 27.7548C107.239 27.7611 102.316 27.7611 97.3955 27.7517C102.319 27.7454 107.242 27.7454 112.163 27.7548Z" stroke="#282C34" stroke-miterlimit="10"/>
<path id="Vector_12" d="M104.423 23.1124L112.163 23.0999C107.239 23.0874 102.316 23.0874 97.3955 23.0968L104.423 23.1124Z" stroke="#282C34" stroke-miterlimit="10"/>
<path id="Vector_13" d="M99.6123 23.1218L103.602 23.1155C99.9276 23.1062 96.2561 23.0999 92.5815 23.1062C94.923 23.1124 97.2677 23.1187 99.6092 23.1218H99.6123Z" stroke="#282C34" stroke-miterlimit="10"/>
<path id="Vector_14" d="M129.899 36.0066C130.089 24.95 125.55 12.2468 115.179 6.93453C105.419 1.93527 94.8265 6.73731 89.1039 15.3866C82.429 25.4728 81.6829 39.4094 86.5189 50.4002C90.6617 59.8134 99.9591 67.7051 110.771 65.182C123.449 62.2238 129.646 47.9115 129.899 36.0066Z" stroke="#282C34" stroke-miterlimit="10"/>
<path id="Vector_15" d="M120.898 39.6473C120.904 46.0834 117.32 48.1432 111.398 48.1463V43.4914C114.545 43.4914 117.183 43.4037 117.202 39.5753C117.22 35.6842 114.476 35.8563 111.398 35.8595V31.6303C117.267 31.6209 120.914 33.1016 120.898 39.6441V39.6473Z" stroke="#282C34" stroke-miterlimit="10"/>
<path id="Vector_16" d="M119.2 23.0592V27.7172L111.398 27.7298V23.0717L119.2 23.0592Z" stroke="#282C34" stroke-miterlimit="10"/>
<path id="Vector_17" d="M110.574 23.0748V48.1494H106.578V23.0811L110.574 23.0748Z" stroke="#282C34" stroke-miterlimit="10"/>
<path id="Vector_18" d="M105.135 23.0842V27.7391L97.3955 27.7517V23.0968L105.135 23.0842Z" stroke="#282C34" stroke-miterlimit="10"/>
<path id="Vector_19" d="M96.5746 23.0968V48.1588H92.5815V23.1031L96.5746 23.0968Z" stroke="#282C34" stroke-miterlimit="10"/>
</g>
<path id="Vector_20" d="M202.975 107.74C203.203 95.2871 198.045 81.0062 186.384 75.0209C175.414 69.3893 163.469 74.7172 157.006 84.4497C149.479 95.7849 148.655 111.437 154.097 123.793C158.761 134.392 169.248 143.279 181.421 140.478C195.682 137.194 202.703 121.129 202.978 107.74H202.975Z" fill="white" stroke="#282C34" stroke-miterlimit="10"/>
<path id="Vector_21" d="M176.519 36.2226C176.519 20.1542 168.676 1.17772 150.147 1.05563C137.325 0.971114 124.497 1.11824 111.675 1.14955C104.185 1.16833 97.6757 1.5878 91.7439 6.83749C78.2226 18.8019 77.0986 42.9749 86.5895 57.644C90.9572 64.3931 97.7038 69.1013 105.858 69.3455C117.529 69.6961 129.264 69.3455 140.94 69.3455C148.655 69.3455 156.269 70.1468 162.966 65.5389C170.156 60.5866 174.368 52.147 175.86 43.7012C176.297 41.2313 176.5 38.7332 176.516 36.2257L176.519 36.2226Z" fill="white" stroke="#282C34" stroke-miterlimit="10"/>
<path id="Vector_22" d="M129.905 35.224C129.864 46.2211 125.125 58.8022 114.644 63.8109C104.741 68.5441 94.2638 63.3538 88.7379 54.6044C82.2816 44.3836 81.7384 30.4251 86.7991 19.5219C91.1325 10.1902 100.617 2.6271 111.335 5.45386C123.957 8.78461 129.861 23.2784 129.901 35.224H129.905Z" fill="#282C34"/>
<path id="Vector_23" d="M123.01 37.6019V32.0579L108.477 32.0423V13H104.234V32.036L89.7607 32.0203V37.558L104.234 37.5768V56.4062L108.477 56.4156V37.5831C113.322 37.5893 118.165 37.5956 123.01 37.6019Z" fill="white"/>
<path id="Vector_24" d="M193.322 109.596V104.052L178.789 104.037V84.9944H174.546V104.03L160.073 104.015V109.552L174.546 109.571V128.401L178.789 128.41V109.577C183.634 109.584 188.477 109.59 193.322 109.596Z" fill="#282C34"/>
<path id="Vector_25" d="M144.978 107.571C145.168 96.4955 140.616 83.783 130.242 78.4456C120.486 73.4276 109.877 78.1795 104.139 86.8382C97.4484 96.9244 96.7148 110.867 101.554 121.864C105.7 131.287 115.003 139.213 125.831 136.715C138.521 133.788 144.725 119.476 144.981 107.574L144.978 107.571Z" fill="#FF59A3"/>
<path id="Vector_26" d="M134.778 106.773L115.041 92.0002V121.182L134.778 106.46V106.773Z" fill="white"/>
<path id="Vector_27" d="M77.8106 36.1662C78.0385 23.8043 72.9528 9.57658 61.3639 3.63194C50.4588 -1.96523 38.6233 3.4222 32.2388 13.092C24.7835 24.3897 23.953 39.9666 29.3541 52.2722C33.9684 62.7904 44.3584 71.64 56.4405 68.8164C70.6082 65.5044 77.539 49.4705 77.8106 36.1694V36.1662Z" fill="#FF59A3"/>
<path id="Vector_28" d="M61.1836 52.8013V18.7612L56.9751 18.7675V52.8013H61.1836Z" fill="white"/>
<path id="Vector_29" d="M53.4653 44.5276V27.0537L49.2568 27.06V44.5308H53.4653V44.5276Z" fill="white"/>
<path id="Vector_30" d="M68.9044 44.5151V27.0317L64.6929 27.038V44.5182H68.9044V44.5151Z" fill="white"/>
<path id="Vector_31" d="M45.7542 40.8587V30.7444L41.5488 30.7506V40.8619C42.9506 40.8619 44.3524 40.8619 45.7542 40.8587Z" fill="white"/>
<path id="Vector_32" d="M33.8403 40.8681H38.0425V30.7538L33.8403 30.76" fill="white"/>
<g id="Group_2">
<path id="Vector_33" d="M49.2163 117.04L53.328 97.5003H50.4776L48.0643 109.872H47.8676L45.2795 97.4941H42.8443L40.2999 109.862H40.1688L37.6462 97.4878H34.4087L38.561 117.025H41.1054L43.7372 104.71L46.3472 117.037H49.2195L49.2163 117.04Z" fill="white"/>
<path id="Vector_34" d="M82.9771 117.094L78.7687 109.08L82.4745 102.512H79.2463L75.7591 108.933V95.5594H72.687V117.081L75.7591 117.087V114.044L76.6957 112.382L79.2463 117.094L82.974 117.1L82.9771 117.094Z" fill="white"/>
<path id="Vector_35" d="M57.8678 117.053V102.484H54.7988V117.05L57.8678 117.056V117.053Z" fill="white"/>
<path id="Vector_36" d="M70.3019 117.075V107.577C70.3112 105.849 70.049 103.501 68.3694 102.568C66.4462 101.501 64.3201 102.703 63.4834 104.528H63.3305V102.49H60.3677V117.059L63.4397 117.065V108.35C63.4397 107.233 64.342 106.328 65.4565 106.328C66.5711 106.328 67.4733 107.233 67.4733 108.35V117.065" fill="white"/>
<g id="Group_3">
<path id="Vector_37" d="M20.3061 107.261L15.442 113.306H15.4326L20.2967 107.261H20.3061Z" fill="white"/>
<path id="Vector_38" d="M15.3204 101.216L20.3062 107.261H20.2969L15.311 101.216H15.3204Z" fill="white"/>
<path id="Vector_39" d="M21.068 94.0663L15.3204 101.216H15.311L21.0618 94.0663H21.0711H21.068Z" fill="white"/>
<path id="Vector_40" d="M31.9632 107.261L21.0675 94.0663H21.0581L31.9539 107.261H31.9632Z" fill="white"/>
<path id="Vector_41" d="M15.442 113.306L21.3332 120.456H21.3238L15.4326 113.309H15.442V113.306Z" fill="white"/>
<path id="Vector_42" d="M21.3336 120.456L31.964 107.261H31.9546L21.3242 120.456H21.3336Z" fill="white"/>
<path id="Vector_43" d="M21.324 120.456L31.9575 107.261L21.0618 94.0663L15.311 101.216L20.2969 107.261L15.4328 113.306L21.324 120.456Z" fill="white"/>
<path id="Vector_44" d="M31.9642 107.261L21.3338 120.456L15.4426 113.306L20.3066 107.261L15.3208 101.216L21.0684 94.0663L31.9642 107.261Z" fill="white"/>
</g>
<g id="Group_4">
<path id="Vector_45" d="M55.6446 97.4879L54.63 98.7432H54.6206L55.6353 97.4879H55.6446Z" fill="white"/>
<path id="Vector_46" d="M54.6046 96.2325L55.6442 97.4878H55.6348L54.5952 96.2357H54.6046V96.2325Z" fill="white"/>
<path id="Vector_47" d="M55.8034 94.7488L54.6046 96.2326H54.5952L55.7941 94.7488H55.8034Z" fill="white"/>
<path id="Vector_48" d="M58.0704 97.4848L55.8038 94.7488H55.7944L58.061 97.4848H58.0704Z" fill="white"/>
<path id="Vector_49" d="M54.63 98.7432L55.8569 100.224H55.8476L54.6206 98.7432H54.63Z" fill="white"/>
<path id="Vector_50" d="M55.856 100.224L58.0664 97.4847H58.0571L55.8467 100.227H55.856V100.224Z" fill="white"/>
<path id="Vector_51" d="M55.8503 100.224L58.0606 97.4848L55.7941 94.7488L54.5952 96.2326L55.6348 97.4879L54.6202 98.7432L55.8503 100.224Z" fill="white"/>
<path id="Vector_52" d="M58.0704 97.4848L55.8569 100.224L54.63 98.7432L55.6446 97.4879L54.605 96.2326L55.8038 94.7488L58.0704 97.4848Z" fill="white"/>
</g>
</g>
</g>
</g>
</svg>
