<svg width="192" height="145" viewBox="0 0 192 145" fill="none" xmlns="http://www.w3.org/2000/svg">
<rect width="192" height="145" fill="#E8E8E8"/>
<path d="M-4356 -2765C-4356 -2766.1 -4355.1 -2767 -4354 -2767H3703C3704.1 -2767 3705 -2766.1 3705 -2765V2720C3705 2721.1 3704.1 2722 3703 2722H-4354C-4355.1 2722 -4356 2721.1 -4356 2720V-2765Z" fill="#E1E1E1"/>
<rect width="1440" height="3258" transform="translate(-162 -2275)" fill="white"/>
<path d="M70.1671 92.8C33.7453 74.936 40.1453 51.968 83.7817 51.968C94.8362 51.968 110.313 56.144 122.182 55.332C133.12 54.52 155.113 46.052 130.676 32.828C110.778 22.04 94.8362 22.272 88.2035 21.808L91.9272 19.372L115.665 5.45203C115.665 5.45203 143.011 10.324 163.142 21.344C187.345 34.568 197.236 55.1 169.542 66.932C141.847 78.764 121.716 75.516 109.382 72.616C91.8108 68.44 82.5017 72.384 85.6435 77.024C86.5744 78.416 89.7162 81.432 90.5308 81.548L70.1671 92.8Z" fill="#FF59A3"/>
<path d="M69.9344 93.264C53.0617 85.028 44.218 74.936 46.1962 66.236C48.4071 56.956 62.3708 51.388 83.7817 51.388C88.669 51.388 94.3708 52.2 100.422 53.012C107.869 54.056 115.549 55.216 122.182 54.752C129.396 54.172 139.985 50.576 141.149 45.24C141.963 41.644 138.24 37.468 130.443 33.292C112.64 23.664 98.2108 22.852 90.4144 22.504C89.5999 22.504 88.7853 22.388 88.2035 22.388L88.3199 21.228C89.018 21.228 89.7162 21.344 90.5308 21.344C98.3271 21.808 112.989 22.504 131.025 32.248C139.403 36.772 143.243 41.18 142.313 45.472C141.033 51.62 129.629 55.332 122.298 55.912C115.665 56.376 107.869 55.216 100.305 54.172C94.2544 53.36 88.669 52.548 83.7817 52.548C52.9453 52.548 48.058 63.22 47.3599 66.584C45.498 74.704 54.1089 84.332 70.5162 92.336L69.9344 93.264Z" fill="#282C34"/>
<path d="M89.5996 81.78C88.3196 80.968 85.9924 78.532 85.1778 77.372C84.2469 76.096 84.2469 74.704 85.0614 73.544C87.156 70.528 95.7669 68.788 109.498 72.036C123.461 75.284 142.894 77.604 169.309 66.352C179.665 61.944 185.367 55.912 185.716 49.068C186.181 40.02 177.571 29.928 162.909 21.808C143.941 11.484 118.341 6.49598 115.781 6.03198L92.3924 19.72L91.8105 18.676L115.665 4.75598H115.898C116.131 4.75598 143.592 9.74398 163.607 20.764C178.734 29 187.461 39.556 186.996 49.068C186.647 56.492 180.712 62.756 169.891 67.396C143.243 78.764 123.578 76.444 109.381 73.08C96.6978 70.064 88.0869 71.34 86.1087 74.124C85.6433 74.82 85.6433 75.748 86.2251 76.676C87.0396 77.72 89.2505 80.04 90.4142 80.852L89.5996 81.78Z" fill="#282C34"/>
<path d="M131.258 105.096C122.764 105.096 115.433 103.82 109.265 102.312C102.516 100.688 96.4654 100.224 92.0436 100.804L91.9272 99.644C96.4654 98.948 102.749 99.528 109.615 101.152C123.578 104.4 143.011 106.72 169.425 95.468C180.48 90.712 186.182 84.216 185.833 76.676H186.996C187.229 82.36 184.553 90.364 169.891 96.628C154.88 103.124 142.08 105.096 131.258 105.096Z" fill="#282C34"/>
<path d="M90.4703 83.5167L90.3599 111.705L91.5235 111.709L91.6339 83.5213L90.4703 83.5167Z" fill="#282C34"/>
<path d="M70.1688 96.332L69.8125 122.313L70.976 122.329L71.3323 96.3478L70.1688 96.332Z" fill="#282C34"/>
<path d="M45.7858 69.2449L45.436 89.0769L46.5994 89.0973L46.9491 69.2652L45.7858 69.2449Z" fill="#282C34"/>
<path d="M88.3226 21.3958L87.9663 47.3772L89.1298 47.3931L89.4862 21.4117L88.3226 21.3958Z" fill="#282C34"/>
<path d="M186.996 58.928H185.833V77.604H186.996V58.928Z" fill="#282C34"/>
<path d="M89.918 80.6369L69.4272 92.5825L70.0147 93.5838L90.5055 81.6382L89.918 80.6369Z" fill="#282C34"/>
<path d="M90.6729 110.581L70.1821 122.526L70.7695 123.528L91.2603 111.582L90.6729 110.581Z" fill="#282C34"/>
<path d="M70.1669 123.424C60.1597 118.088 52.8288 111.244 52.7124 111.128L53.5269 110.316C53.6433 110.432 60.9742 117.16 70.7488 122.38L70.1669 123.424Z" fill="#282C34"/>
<path d="M10.1235 137.112C5.818 134.676 3.49072 131.544 3.49072 128.296H4.65436C4.65436 131.196 6.74891 133.98 10.5889 136.184L10.1235 137.112Z" fill="#282C34"/>
<path d="M27.8107 141.172C24.2034 141.172 20.9452 140.824 18.0361 140.128L18.2689 138.968C21.0616 139.664 24.3198 140.012 27.8107 140.012C40.4943 140.012 50.8507 134.792 50.8507 128.296H52.0143C52.0143 135.488 41.4252 141.172 27.8107 141.172Z" fill="#282C34"/>
<path d="M52.0142 99.1801H50.8506V128.76H52.0142V99.1801Z" fill="#282C34"/>
<path d="M4.65436 99.5281H3.49072V128.876H4.65436V99.5281Z" fill="#282C34"/>
<path d="M27.9273 112.172C41.1018 112.172 51.7819 105.992 51.7819 98.368C51.7819 90.7442 41.1018 84.564 27.9273 84.564C14.7528 84.564 4.07275 90.7442 4.07275 98.368C4.07275 105.992 14.7528 112.172 27.9273 112.172Z" fill="#FF59A3"/>
<path d="M27.9271 112.752C14.4289 112.752 3.49072 106.256 3.49072 98.368C3.49072 90.48 14.4289 83.984 27.9271 83.984C41.4253 83.984 52.3634 90.48 52.3634 98.368C52.3634 106.256 41.4253 112.752 27.9271 112.752ZM27.9271 85.144C15.1271 85.144 4.65436 91.06 4.65436 98.368C4.65436 105.676 15.1271 111.592 27.9271 111.592C40.7271 111.592 51.1998 105.676 51.1998 98.368C51.1998 91.06 40.7271 85.144 27.9271 85.144Z" fill="white"/>
<path d="M-4354 -2766H3703V-2768H-4354V-2766ZM3704 -2765V2720H3706V-2765H3704ZM3703 2721H-4354V2723H3703V2721ZM-4355 2720V-2765H-4357V2720H-4355ZM-4354 2721C-4354.55 2721 -4355 2720.55 -4355 2720H-4357C-4357 2721.66 -4355.66 2723 -4354 2723V2721ZM3704 2720C3704 2720.55 3703.55 2721 3703 2721V2723C3704.66 2723 3706 2721.66 3706 2720H3704ZM3703 -2766C3703.55 -2766 3704 -2765.55 3704 -2765H3706C3706 -2766.66 3704.66 -2768 3703 -2768V-2766ZM-4354 -2768C-4355.66 -2768 -4357 -2766.66 -4357 -2765H-4355C-4355 -2765.55 -4354.55 -2766 -4354 -2766V-2768Z" fill="black" fill-opacity="0.1"/>
</svg>
