<svg width="24" height="24" viewBox="0 0 24 24" fill="none" xmlns="http://www.w3.org/2000/svg">
<g id="24px/more.tv">
<path id="Union" fill-rule="evenodd" clip-rule="evenodd" d="M16.2939 3.19567C16.5623 2.88019 16.5241 2.40685 16.2087 2.13844C15.8932 1.87003 15.4198 1.90819 15.1514 2.22367L12.212 5.67849L9.74859 4.01293C9.40544 3.78093 8.93919 3.87103 8.70719 4.21418C8.47519 4.55732 8.56529 5.02357 8.90843 5.25557L10.3536 6.23264H4.83838C3.3196 6.23264 2.08838 7.46386 2.08838 8.98264V18.4805C2.08838 19.9993 3.3196 21.2305 4.83838 21.2305H19.2445C20.7633 21.2305 21.9945 19.9993 21.9945 18.4805V8.98264C21.9945 7.46386 20.7633 6.23264 19.2445 6.23264H13.71L16.2939 3.19567ZM3.58838 8.98264C3.58838 8.29229 4.14802 7.73264 4.83838 7.73264H19.2445C19.9349 7.73264 20.4945 8.29229 20.4945 8.98264V18.4805C20.4945 19.1708 19.9349 19.7305 19.2445 19.7305H4.83838C4.14802 19.7305 3.58838 19.1708 3.58838 18.4805V8.98264Z" fill="white"/>
<path id="Ellipse 16" d="M16.3366 13.7314C16.3366 16.1033 14.4138 18.0262 12.0418 18.0262C9.6699 18.0262 7.74707 16.1033 7.74707 13.7314C7.74707 11.3595 9.6699 9.43662 12.0418 9.43662C14.4138 9.43662 16.3366 11.3595 16.3366 13.7314Z" fill="white"/>
</g>
</svg>
