<svg width="102" height="102" viewBox="0 0 102 102" fill="none" xmlns="http://www.w3.org/2000/svg">
<g id="image">
<g id="Group 277131644">
<path id="Vector" d="M63.7666 84.2076L95.2805 65.9014C97.5713 64.5639 98.6495 62.7897 98.5153 61.0437C98.396 59.4909 98.5153 52.5312 98.4525 51.6352L52.3509 31.9949C48.0141 29.5039 40.9621 29.5129 36.6163 31.9949L3.02551 44.0188C3.02552 47.6029 2.96811 52.6313 3.0255 54.3233C3.08001 55.9302 4.1635 57.5242 6.27599 58.742L15.8996 64.2992L15.2724 67.0502V77.6306L34.7883 76.5643L48.0588 84.2256C52.3957 86.7255 59.4476 86.7076 63.7845 84.2256" fill="#FF59A3"/>
<path id="Vector_2" d="M95.2916 54.7445C99.6285 52.2176 99.6285 48.1317 95.2916 45.6227L52.371 20.8918C48.0341 18.3649 40.9822 18.3739 36.6363 20.8918L6.26937 38.4543C1.94146 40.9812 1.94146 45.0672 6.26937 47.5672L18.3571 54.5474L18.2853 54.8072L15.2655 66.4558L34.7815 65.3895L48.052 73.0507C52.3889 75.5866 59.4408 75.5686 63.7777 73.0507L95.2916 54.7445Z" fill="white"/>
<path id="Vector_3" d="M57.8497 33.5735C56.5672 36.7289 52.2267 40.1405 51.9654 40.2703L45.1345 38.0871C36.8892 41.8466 39.2801 52.2526 39.4118 52.7662L46.1367 54.9935L45.9653 63.1596L36.7062 61.927C36.0132 61.8292 35.3447 61.6018 34.7359 61.2566C34.4223 61.0727 34.1324 60.8514 33.8723 60.5974C33.7152 60.4312 33.5807 60.245 33.4722 60.0438C22.8884 40.8887 39.9847 31.2688 45.9357 28.6104C46.5502 28.3682 47.2157 28.2842 47.8711 28.3663C48.6251 28.4616 49.354 28.7002 50.0185 29.0691L57.8497 33.5735Z" fill="#FF59A3"/>
<path id="Vector_4" d="M56.6134 41.8948C58.5847 43.0328 59.6241 44.5381 59.4718 46.0793C59.3105 47.7818 57.6798 49.3499 55.1171 50.3535C54.7268 50.4795 54.3066 50.4795 53.9163 50.3535C53.8138 50.3256 53.7146 50.2865 53.6206 50.237C53.5356 50.1991 53.4636 50.1375 53.4127 50.0596C53.3619 49.9818 53.3345 49.8909 53.334 49.7979C53.3718 49.6928 53.4347 49.5985 53.5175 49.5235C53.6003 49.4485 53.7005 49.395 53.8089 49.3678C55.8788 48.5703 57.1421 47.3248 57.2586 45.9628C57.3751 44.7442 56.5507 43.5525 54.9915 42.6474C54.8213 42.5489 54.6422 42.4593 54.4451 42.3607H54.3823C53.988 42.1367 53.9791 41.7962 54.3823 41.5722C54.6278 41.4519 54.8974 41.3894 55.1707 41.3894C55.4441 41.3894 55.7139 41.4519 55.9593 41.5722C56.1832 41.6676 56.4015 41.7753 56.6134 41.8948Z" fill="#282C34"/>
<path id="Vector_5" d="M60.8248 39.6457C63.8803 41.4378 65.5022 43.8123 65.305 46.2586C65.0631 48.8929 62.7245 51.3123 58.9163 52.8714C58.5702 53.0076 58.1883 53.0233 57.8321 52.9162C57.7454 52.8919 57.6613 52.8589 57.5812 52.8176C57.3841 52.7012 57.2765 52.5488 57.3034 52.3875C57.3303 52.2262 57.4557 52.0649 57.7066 51.9574C61.0219 50.6044 63.0828 48.4897 63.28 46.1958C63.4771 44.0543 62.0615 41.9665 59.4002 40.4342L58.7818 40.0937C58.513 39.9414 58.4056 39.7443 58.4862 39.5561C58.557 39.4366 58.656 39.3364 58.7748 39.2645C58.8936 39.1926 59.0285 39.1512 59.1672 39.1439C59.5038 39.0827 59.8509 39.1265 60.1617 39.2694L60.8248 39.6457Z" fill="#282C34"/>
<path id="Vector_6" d="M64.6778 36.5992C69.158 39.1529 71.4518 42.764 71.0755 46.4557C70.6992 50.1474 67.6258 53.6241 62.6617 55.8552C62.3381 55.9761 61.9816 55.9761 61.658 55.8552L61.4519 55.7656C61.3656 55.7297 61.2922 55.6686 61.2411 55.5903C61.1899 55.512 61.1636 55.4201 61.1654 55.3266C61.184 55.2265 61.2298 55.1334 61.2977 55.0575C61.3657 54.9817 61.4531 54.926 61.5506 54.8965C66.0308 52.8714 68.8714 49.7442 69.2119 46.3482C69.5524 42.9522 67.4198 39.6905 63.3965 37.3877L63.2979 37.325C63.1944 37.2846 63.1095 37.2073 63.0598 37.1079C63.0102 37.0086 62.9992 36.8943 63.029 36.7873C63.0947 36.6704 63.1877 36.571 63.3 36.4977C63.4124 36.4244 63.5406 36.3793 63.6741 36.3662C63.9785 36.3089 64.2933 36.353 64.5702 36.4917L64.6778 36.5992Z" fill="#282C34"/>
<path id="Vector_7" d="M36.6164 21.2423C40.9622 18.7603 48.0142 18.7513 52.351 21.2423L95.2806 46.027C99.6085 48.536 99.6085 52.622 95.2806 55.1488L79.5236 64.3019L71.6452 68.8785L63.7846 73.473C59.4477 75.9551 52.3958 75.973 48.0589 73.473L34.7884 65.8118L15.2724 66.8781L18.2922 55.2294L18.3638 54.9696L6.27609 47.9894C1.93922 45.4894 1.93922 41.4034 6.27609 38.8766L31.0844 24.4576" stroke="#282C34" stroke-linejoin="bevel"/>
</g>
</g>
</svg>
