<svg width="102" height="102" viewBox="0 0 102 102" fill="none" xmlns="http://www.w3.org/2000/svg">
<g id="image">
<g id="Group 1321314131">
<g id="Group">
<path id="Vector" d="M70.2367 36.6045C73.4026 25.224 67.7701 17.9865 60.7922 15.9511C65.058 19.4071 67.5299 25.5597 65.1914 33.9751C62.4312 43.8988 54.2307 49.2042 47.0926 48.6825C45.5924 48.574 44.215 48.3157 42.9443 47.9282C45.2614 49.7931 48.3206 51.033 52.1379 51.3119C59.276 51.8337 67.4765 46.5283 70.2367 36.6045Z" fill="#282C34"/>
<path id="Vector_2" d="M28.849 49.581C21.2731 35.4366 29.842 4.53401 58.5385 3.85727C61.5122 3.78495 64.4699 4.33771 67.2408 5.42255C63.1566 2.4883 58.2555 0.892029 53.3064 1.00568C24.6099 1.68242 16.041 32.585 23.6169 46.7294C30.9151 59.4066 39.0569 69.7952 48.8591 84.9211C51.1014 86.3469 52.0891 86.8325 54.0858 88C45.88 75.7412 35.2183 60.6619 28.8436 49.5861L28.849 49.581Z" fill="#FF59A3"/>
</g>
<g id="Group_2">
<path id="Vector_3" d="M82.2244 23.6154C83.5192 30.1193 82.4924 37.8532 77.9401 46.2326C71.3733 58.3312 62.8151 73.0696 54.0593 87.7719C44.2571 72.646 36.1154 62.2573 28.8171 49.5801C21.2359 35.4358 29.8101 4.53317 58.5013 3.85643C67.0948 3.65519 75.5284 8.61036 79.8201 16.7878" stroke="#282C34"/>
<path id="Vector_4" d="M52.099 51.3101C39.953 50.4267 35.447 39.821 38.2766 30.1711C40.9087 21.1978 48.9811 14.0017 58.8847 15.5308C66.6688 16.7345 73.6414 24.2199 70.1978 36.6027C67.4376 46.5264 59.2371 51.8318 52.099 51.3101V51.3101Z" stroke="#282C34"/>
</g>
</g>
</g>
</svg>
