<svg width="102" height="102" viewBox="0 0 102 102" fill="none" xmlns="http://www.w3.org/2000/svg">
<g id="toggle_w" clip-path="url(#clip0_58_13542)">
<g id="Group 277131736">
<path id="Vector" d="M34.1349 28.9904C25.7278 33.8434 14.5078 40.322 6.10082 45.1749C2.94519 46.9998 1.33551 49.5657 1.63035 52.307C1.92519 55.0562 4.10066 57.7576 7.67066 59.8215C11.2407 61.8854 15.9263 63.1365 20.6836 63.3118C25.441 63.4792 29.8875 62.5548 33.0432 60.73C41.4502 55.877 52.6702 49.3984 61.0772 44.5454C64.2329 42.7206 65.8425 40.1546 65.5477 37.4134C65.2529 34.6642 63.0774 31.9628 59.5074 29.8989M34.1349 32.7517C25.7278 37.6046 14.5078 44.0832 6.10082 48.9362C3.92535 50.1873 2.49097 51.797 1.90129 53.574C2.62644 55.877 4.65051 58.0764 7.67066 59.8295C11.2407 61.8934 15.9263 63.1445 20.6836 63.3198C25.441 63.4871 29.8875 62.5628 33.0432 60.7379C41.4502 55.8849 52.6702 49.4064 61.0772 44.5534C63.2527 43.3023 64.6871 41.6926 65.2768 39.9156C64.5516 37.6126 62.5275 35.4132 59.4994 33.6601M82.043 51.534C81.788 51.279 81.4693 51.0399 81.1027 50.8328C80.1066 50.259 78.8077 49.9004 77.5008 49.8526C76.186 49.7968 74.9668 50.0439 74.1061 50.5459C70.823 52.4424 65.4919 55.5184 59.5472 58.9529M101.248 62.6265C100.993 62.3715 100.674 62.1325 100.307 61.9253C99.3113 61.3515 98.0124 60.9929 96.6975 60.9451C95.3827 60.8893 94.1635 61.1364 93.3029 61.6384C90.0197 63.5349 84.6886 66.6109 78.7439 70.0454M77.2618 70.906C66.2489 77.2651 54.6066 83.9828 48.5264 87.497M81.0868 47.8046C80.0907 47.2309 78.7918 46.8723 77.4769 46.8245C76.1621 46.7687 74.9429 47.0157 74.0822 47.5178C64.7189 52.9206 37.7766 68.4835 28.4133 73.8864C27.5527 74.3804 27.1224 75.0896 27.21 75.8467C27.3057 76.6037 27.9193 77.3528 28.9153 77.9265C29.9114 78.5003 31.2103 78.8589 32.5252 78.9067C33.84 78.9624 35.0593 78.7154 35.9199 78.2134C45.2832 72.8106 72.2255 57.2476 81.5888 51.8448C82.4494 51.3507 82.8797 50.6415 82.7841 49.8845C82.6885 49.1274 82.0749 48.3784 81.0788 47.8046H81.0868ZM100.283 58.8892C99.2874 58.3154 97.9885 57.9648 96.6736 57.909C95.3588 57.8532 94.1396 58.1003 93.2789 58.6023C83.9157 64.0051 56.9653 79.5681 47.61 84.9709C46.7494 85.4649 46.3191 86.1742 46.4068 86.9312C46.5024 87.6882 47.116 88.4373 48.1121 89.011C49.1082 89.5848 50.4071 89.9434 51.7219 89.9912C53.0368 90.047 54.256 89.7999 55.1166 89.2979C64.4799 83.8951 91.4302 68.3321 100.786 62.9293C101.646 62.4353 102.076 61.726 101.989 60.969C101.893 60.212 101.28 59.4629 100.283 58.8892ZM58.065 59.8215C47.0443 66.1806 35.4099 72.8982 29.3297 76.4125L58.065 59.8215Z" stroke="#282C34" stroke-linejoin="round"/>
<path id="Vector_2" fill-rule="evenodd" clip-rule="evenodd" d="M34.1586 29.5403L37.3222 34.465L49.5382 34.4411L56.5109 29.5403H62.0093V36.752C61.9854 39.2143 60.3359 41.6847 57.0687 43.5733C50.5104 47.3584 39.8881 47.3823 33.3697 43.6131C30.0945 41.7245 28.4768 39.2383 28.5007 36.752V29.5403H34.1586Z" fill="#282C34"/>
<path id="Vector_3" fill-rule="evenodd" clip-rule="evenodd" d="M79.7079 61.3356C82.6165 59.8374 87.0232 59.8374 89.8999 61.3356H92.4101V67.9496C92.4021 69.0732 91.6451 70.1968 90.1549 71.0574C87.1667 72.7867 82.3217 72.7946 79.3493 71.0734C77.8592 70.2128 77.1181 69.0812 77.126 67.9417V61.3276H79.7079V61.3356Z" fill="#282C34"/>
<path id="Vector_4" fill-rule="evenodd" clip-rule="evenodd" d="M79.3812 58.2517C82.3774 56.5225 87.2145 56.5145 90.1948 58.2357C93.1671 59.949 93.1512 62.7461 90.1629 64.4753C87.1746 66.2045 82.3296 66.2125 79.3573 64.4912C76.3849 62.7779 76.4009 59.9809 79.3891 58.2517H79.3812Z" fill="#FF59A3"/>
<path id="Vector_5" fill-rule="evenodd" clip-rule="evenodd" d="M33.5688 65.3837C36.4773 63.8856 40.8841 63.8856 43.7608 65.3837H46.2709V71.9978C46.255 73.1214 45.5059 74.245 44.0158 75.1056C41.0275 76.8348 36.1825 76.8428 33.2102 75.1215C31.72 74.2609 30.9789 73.1214 30.9869 71.9898V65.3758H33.5688V65.3837Z" fill="#282C34"/>
<path id="Vector_6" fill-rule="evenodd" clip-rule="evenodd" d="M33.2423 62.2998C36.2385 60.5706 41.0755 60.5626 44.0559 62.2838C47.0362 64.0051 47.0123 66.7942 44.024 68.5234C41.0357 70.2526 36.1907 70.2606 33.2184 68.5393C30.246 66.826 30.262 64.029 33.2502 62.2998H33.2423Z" fill="#FF59A3"/>
<path id="Vector_7" d="M28.7318 40.067L22.0301 43.9398M23.2414 17.4118L29.9032 21.2607M62.3361 39.9873L68.9979 43.8362M45.6973 12.001L45.6654 17.4596M77.3332 30.2654L67.8823 30.2814M45.5379 44.2904L45.5061 49.749M23.3211 30.361L13.8701 30.377M68.1054 17.3242L61.4037 21.197L64.7546 19.2606L68.1054 17.3242Z" stroke="#FF59A3" stroke-linecap="square" stroke-linejoin="bevel"/>
<path id="Vector_8" fill-rule="evenodd" clip-rule="evenodd" d="M33.4414 22.7828C39.9997 18.9976 50.622 18.9737 57.1405 22.743C63.6589 26.5042 63.627 32.6322 57.0688 36.4253C50.5105 40.2105 39.8881 40.2344 33.3697 36.4651C26.8513 32.7039 26.8831 26.568 33.4414 22.7828ZM44.5259 31.5564L37.3302 31.5723L37.3142 34.473L49.5303 34.449L49.5941 22.6712H44.5738L44.5259 31.5564Z" fill="#FF59A3"/>
</g>
</g>
<defs>
<clipPath id="clip0_58_13542">
<rect width="102" height="102" fill="white"/>
</clipPath>
</defs>
</svg>
