<svg width="102" height="102" viewBox="0 0 102 102" fill="none" xmlns="http://www.w3.org/2000/svg">
<g id="image">
<g id="Group 1321314133">
<path id="Vector" d="M66.2128 56.3977C66.048 56.4685 65.8832 56.5346 65.7231 56.6054C65.8879 56.5393 66.0527 56.4685 66.2128 56.3977Z" fill="white" stroke="#282C34" stroke-miterlimit="10"/>
<g id="Group">
<path id="Vector_2" d="M33.0221 54.93C31.7039 54.1135 31.3696 53.7737 30.5834 53.0563C30.2162 52.6741 29.9243 52.339 29.9243 52.339C29.9196 52.3296 29.9102 52.3201 29.9008 52.306C29.7501 52.0936 29.656 51.8482 29.6089 51.5933C28.6626 46.4019 23.1685 42.598 16.5209 42.8528C16.5115 42.8528 16.3326 42.8623 16.3232 42.8623C9.10129 43.2398 3.23995 48.2897 3.22583 54.2315C3.22583 54.5902 3.24466 54.9441 3.28703 55.2934L3.37648 55.9966C3.46122 56.6667 3.56951 57.3369 3.70604 57.9976C4.13916 60.1025 4.84535 62.8917 7.58534 66.9694C13.3478 75.3181 19.388 78.0743 19.388 78.0743C17.7026 77.0643 16.6669 74.714 16.6763 71.7455C16.6951 65.7989 20.8852 58.6112 26.0827 55.6001L26.238 55.5105C28.898 54.0144 31.3037 53.9011 33.0268 54.9347L33.0221 54.93Z" fill="#FF59A3"/>
<path id="Vector_3" d="M75.2664 55.9352C72.7006 54.4108 70.3702 54.2456 68.6801 55.2037C68.6801 55.2037 66.6369 56.3411 62.4327 57.6578C58.0261 59.0359 52.9792 59.1256 52.9792 59.1256C53.1393 59.1161 53.3512 60.0411 53.5583 61.7071C54.0856 65.9971 54.4952 74.2184 54.4764 80.165C54.4669 83.8131 54.3069 85.7764 54.0574 85.7953C54.0574 85.7953 61.3734 85.885 70.0313 83.3176C79.3105 80.5661 81.7963 78.4235 81.7963 78.4235C83.4911 77.4607 84.5457 75.3417 84.5551 72.3354C84.5739 66.3888 80.351 59.0406 75.2711 55.9399L75.2664 55.9352Z" fill="#FF59A3"/>
<path id="Vector_4" d="M98.4143 47.5629C97.9247 45.3542 97.4256 40.8423 90.8864 33.4469C87.5155 29.6383 82.6381 27.0237 82.3227 26.8349C80.6467 25.8438 78.3304 25.9524 75.7599 27.3824C70.5435 30.3745 66.1558 37.7464 66.1417 43.7448C66.1322 46.7275 67.168 48.8277 68.8534 49.8235L68.9899 49.9226C70.7978 51.0034 71.7582 52.1124 72.0642 52.523C72.0642 52.523 71.9559 51.9095 71.9559 51.5083C71.9747 45.5052 78.4057 40.3798 85.7312 40.0636C92.247 39.8654 97.6281 43.5655 98.6167 48.6483L98.419 47.5534L98.4143 47.5629Z" fill="#FF59A3"/>
<path id="Vector_5" d="M48.247 21.5256C48.0211 19.9351 47.7951 19.062 47.6162 19.0762C47.6162 19.0762 39.7634 19.2602 32.4003 21.4217C25.0418 23.5833 22.2924 25.2492 20.3716 26.3536C22.0146 25.4097 24.4345 25.6504 26.925 27.104C32.0425 30.1716 36.1807 37.5246 36.1619 43.5278C36.1525 46.5435 35.0979 48.6437 33.3983 49.597C34.354 49.0637 38.2569 47.1617 43.2425 46.3358C45.6718 45.9347 48.8073 45.7223 48.8073 45.7223C49.085 45.7034 49.2734 43.7401 49.2828 40.092C49.3016 34.0888 48.8308 25.7778 48.2423 21.5256" fill="#FF59A3"/>
</g>
<path id="Vector_6" d="M15.5834 29.4872C15.7623 29.3551 15.9365 29.2277 16.1107 29.1003C16.4873 28.8218 16.8216 28.5858 17.1794 28.3499C17.1841 28.3451 17.1935 28.3404 17.1935 28.3404C17.4242 28.18 17.6831 28.0101 17.9515 27.8354C17.9609 27.826 17.9656 27.8213 17.975 27.8166C17.9892 27.8071 18.008 27.7977 18.0221 27.7882C18.8036 27.2927 19.6746 26.7735 20.3855 26.363C21.4683 25.7589 22.0709 25.4379 22.8854 25.0509C22.9136 25.0368 22.9466 25.0226 22.9748 25.0085C22.9889 24.999 23.0078 24.9896 23.0266 24.9801C23.036 24.9754 23.0501 24.9707 23.0596 24.966C23.2102 24.8952 23.3609 24.8244 23.5162 24.7489C23.5209 24.7442 23.5256 24.7395 23.5256 24.7395H23.5351C23.5492 24.7347 23.5586 24.73 23.568 24.7253C24.2883 24.3713 24.8344 24.1354 25.7289 23.7672C25.7431 23.7625 25.7572 23.7578 25.7666 23.7531C25.7854 23.7436 25.809 23.7389 25.8278 23.7295C25.969 23.6729 26.1197 23.6115 26.2798 23.5454C26.4022 23.4935 26.534 23.4416 26.6705 23.3897C27.565 23.031 28.1017 22.8281 28.9115 22.5591C29.0009 22.5307 29.0904 22.4977 29.1751 22.4694C29.1892 22.4647 29.2034 22.4552 29.2175 22.4552C30.2391 22.1013 31.0442 21.8559 31.5479 21.7096C31.7456 21.6482 31.9387 21.5963 32.1223 21.5444C32.2823 21.4972 32.4189 21.4641 32.5224 21.4358C33.5817 21.1432 34.1184 20.9969 34.9988 20.8034C35.4837 20.6901 35.9639 20.5816 36.4394 20.4825C36.5383 20.4589 36.6371 20.44 36.7407 20.4164C36.769 20.4117 36.8019 20.4023 36.8302 20.3975C36.9384 20.3739 37.042 20.3551 37.1456 20.3315C37.1974 20.322 37.2492 20.3079 37.3057 20.2984C37.3857 20.2843 37.4657 20.2654 37.5458 20.2512C37.6446 20.2324 37.7388 20.2182 37.8329 20.1993C37.8706 20.1946 37.9083 20.1852 37.9459 20.1804C38.1625 20.1427 38.3649 20.1097 38.5627 20.0766C38.8593 20.0247 39.1559 19.9728 39.4478 19.9256C40.0786 19.817 40.5259 19.7463 41.1285 19.6707C41.345 19.6377 41.5475 19.6141 41.7452 19.5905C42.9222 19.4395 44.0709 19.3215 45.182 19.2365C45.8505 19.1705 46.665 19.128 47.4229 19.095C47.7713 19.0761 48.1197 19.0619 48.4587 19.0525C50.6714 18.9581 54.5366 18.9345 59.2398 19.482C59.2633 19.4867 59.2868 19.4914 59.3104 19.4914C59.3151 19.4914 59.3245 19.4914 59.3245 19.4914C64.2772 20.0719 70.1527 21.2895 75.9952 23.7153C76.0658 23.7436 76.1411 23.7767 76.2117 23.805C76.3247 23.8522 76.4424 23.8994 76.5554 23.9466C76.5884 23.9607 76.6213 23.9749 76.6543 23.9891C76.7155 24.0127 76.7767 24.0363 76.8379 24.0646C76.852 24.0693 77.3746 24.2864 78.2173 24.6828C78.6692 24.8952 79.0977 25.1029 79.5025 25.3058L79.5261 25.32C79.5355 25.3247 79.5449 25.3341 79.5543 25.3341C79.7191 25.4191 79.8792 25.4993 80.0345 25.5795C80.0439 25.5842 80.0675 25.5937 80.0675 25.5937L80.091 25.6078C80.3735 25.7541 80.6371 25.8957 80.8867 26.0279C81.0561 26.1175 81.2209 26.2072 81.3716 26.2922C81.4704 26.3488 81.5646 26.4007 81.6635 26.4573C82.0825 26.6933 82.4167 26.8915 82.6427 27.0284C82.7039 27.0614 82.7698 27.1039 82.831 27.1417C83.6125 27.6136 84.4176 28.1328 85.2132 28.6897C86.3525 29.4778 87.0022 30.0111 87.1152 30.1055C87.1482 30.1338 87.1858 30.1669 87.2235 30.1952C87.247 30.214 87.2753 30.2376 87.2988 30.2565C87.3977 30.332 87.4918 30.4075 87.5813 30.4831C87.6425 30.5303 87.7037 30.5822 87.7649 30.6294C87.7979 30.6577 87.8308 30.686 87.8638 30.7096C88.8618 31.5213 90.1 32.6587 91.0275 33.664C92.0585 34.74 92.6564 35.514 92.8494 35.7736C92.8683 35.7925 92.8824 35.8161 92.9012 35.8397C92.9436 35.8916 92.9813 35.9435 93.0236 35.9954C93.0425 36.019 93.0613 36.0473 93.0801 36.0709C93.4332 36.5287 93.7722 36.9865 94.1159 37.4962C94.1441 37.5339 94.1676 37.5717 94.1959 37.6142C94.1959 37.6236 94.2053 37.6283 94.2053 37.6331C94.4925 38.0484 94.7608 38.459 94.9774 38.8365C95.0621 38.9781 95.1516 39.1291 95.2458 39.2896C95.274 39.3368 95.3023 39.384 95.3305 39.4312C95.3823 39.5208 95.4341 39.6152 95.4906 39.7096C97.3502 42.9047 98.466 46.5246 98.7955 50.2057C98.8614 50.9184 98.8991 51.6735 98.8991 52.4522C98.8991 52.5041 98.8991 52.556 98.8991 52.608C98.8991 52.7118 98.8991 52.8203 98.8991 52.9289C98.8661 55.0338 98.5695 57.1292 98.0093 59.1444C97.9622 59.3238 97.9151 59.4701 97.8822 59.5881L97.9198 59.6211C97.9104 59.6494 97.8916 59.7155 97.8633 59.8099C97.6468 60.532 97.5244 60.919 97.2843 61.5183L97.2654 61.5702C97.2607 61.5844 97.2513 61.5986 97.2466 61.6127C96.9924 62.3065 96.6817 63.0616 96.3615 63.6846C96.3521 63.6987 96.3427 63.7176 96.3333 63.7318C96.112 64.2226 95.9378 64.5577 95.66 65.0485C95.4953 65.3553 95.3258 65.6479 95.1516 65.9405C95.1422 65.9546 95.1375 65.9688 95.1281 65.9829C94.9397 66.2992 94.7467 66.6106 94.549 66.9127C94.5349 66.9363 94.5207 66.9552 94.5066 66.9788C94.3089 67.2855 94.1064 67.5828 93.8993 67.8755C93.8852 67.8943 93.8663 67.9179 93.8522 67.9415C93.6404 68.2436 93.4191 68.5409 93.2025 68.8241C93.1884 68.8382 93.1743 68.8571 93.1602 68.876C92.9248 69.178 92.6894 69.4706 92.454 69.7538C92.4446 69.768 92.4351 69.7774 92.4257 69.7916C92.1856 70.0794 91.9455 70.3532 91.7101 70.6175C91.6489 70.6835 91.583 70.7543 91.5218 70.8204C91.3617 70.995 91.2017 71.1649 91.0416 71.3301C90.8674 71.5189 90.6838 71.7029 90.5002 71.887C90.359 72.0333 90.2177 72.1749 90.0812 72.3023C89.9447 72.4345 89.8034 72.5666 89.6622 72.6988C89.4974 72.8545 89.3279 73.0102 89.1537 73.1707C89.0925 73.2226 89.036 73.2745 88.9795 73.3264C88.9795 73.3312 88.9701 73.3359 88.9701 73.3359C88.7441 73.5388 88.4899 73.7606 88.2216 73.9825C88.0238 74.1524 87.8261 74.3128 87.6237 74.478C87.4212 74.6432 87.2282 74.8036 87.0446 74.9452C86.8751 75.0774 86.7009 75.2095 86.5173 75.3464C86.4514 75.3983 86.3855 75.4502 86.3196 75.4974C85.9335 75.7947 85.4533 76.1345 84.9872 76.4555C84.9637 76.4696 84.9449 76.4838 84.926 76.4979C84.6624 76.6773 84.4082 76.8472 84.1728 76.9982C83.5984 77.371 83.0099 77.7344 82.412 78.0884C81.4092 78.7019 80.0628 79.4287 79.0082 79.9054C78.9941 79.9101 78.98 79.9196 78.9658 79.9243C78.8152 79.9951 78.6645 80.0659 78.5092 80.1414C77.2898 80.7219 76.1081 81.2127 75.1289 81.595C74.4416 81.864 73.9613 82.048 73.3305 82.2604C72.9303 82.3973 72.6714 82.4822 72.6149 82.5011C71.7675 82.789 70.7129 83.1099 69.8984 83.3412C69.8466 83.3553 69.7902 83.3695 69.7384 83.3837C69.7007 83.3978 69.663 83.4072 69.6301 83.4167C69.5359 83.445 69.4465 83.4686 69.357 83.4922C68.3919 83.7659 67.408 84.0208 66.4852 84.2048C66.4334 84.2143 66.3863 84.2237 66.3346 84.2379C64.5361 84.6673 62.7236 84.9788 60.9817 85.2101C57.399 85.7103 53.7268 85.9227 50.0688 85.8614C49.1366 85.8614 48.0491 85.8189 46.8862 85.7434C46.0718 85.7104 45.2479 85.6443 44.3581 85.5499C30.5734 84.5305 17.0994 79.3438 9.19481 69.1356C8.08845 67.7386 6.90677 65.9971 5.88515 63.9158C5.88045 63.9064 5.87103 63.8922 5.87103 63.8922L5.84278 63.8261C5.791 63.7176 5.74392 63.6138 5.69213 63.5052C5.64976 63.4203 5.60739 63.3353 5.56972 63.2551C5.35316 62.8067 5.12718 62.2687 4.91533 61.726C4.82117 61.49 4.72701 61.2399 4.63756 60.9803C4.51986 60.6594 4.41629 60.3479 4.32684 60.06C4.30801 59.9939 4.28447 59.9231 4.26564 59.8523C3.51237 57.4785 3.13574 55.0998 3.13574 52.7354C3.13574 52.5891 3.13574 52.4428 3.13574 52.3059C3.13574 52.1926 3.13574 52.0699 3.13574 51.9472V51.9378C3.14045 51.5366 3.15928 51.0883 3.19224 50.6022C3.21107 50.2907 3.23932 49.9839 3.27227 49.6913C3.27227 49.6772 3.27227 49.6677 3.27227 49.6536C3.28169 49.6064 3.28639 49.5592 3.2911 49.512C3.33818 49.0731 3.40409 48.6106 3.48883 48.1292C3.62536 47.2325 3.87959 46.114 4.14323 45.2833C4.15736 45.2409 4.16677 45.1984 4.1809 45.1559C4.19031 45.1229 4.19973 45.0946 4.20914 45.0615C4.20914 45.0568 4.20914 45.0474 4.20914 45.0474C4.41158 44.3725 4.53399 43.9949 4.75526 43.4333C4.76938 43.4003 4.7788 43.3719 4.79292 43.3389V43.3295C4.79292 43.3247 4.79292 43.3247 4.79292 43.3247C5.0801 42.5649 5.41436 41.7862 5.80041 40.9933C5.99814 40.5733 6.16763 40.2524 6.42656 39.7899C6.45481 39.7332 6.48306 39.6813 6.51601 39.6247C6.52072 39.6152 6.53014 39.6011 6.53484 39.5916C6.629 39.4217 6.72787 39.2518 6.82673 39.0819C6.84086 39.0489 6.85969 39.0206 6.87852 38.9875C6.96797 38.8318 7.06684 38.6761 7.1657 38.5156C7.19395 38.4731 7.21749 38.4307 7.24574 38.3882C7.37285 38.19 7.49996 37.9917 7.63178 37.7935C7.66945 37.7369 7.7024 37.685 7.74007 37.6331C7.76831 37.5906 7.79656 37.5528 7.82481 37.5056C7.9378 37.3357 8.06491 37.1564 8.19202 36.9723C9.04415 35.7594 10.0187 34.5843 11.1109 33.4469M69.0463 49.9509C69.1122 49.9886 69.1734 50.0311 69.2346 50.0689C69.357 50.1491 69.4747 50.2246 69.5924 50.3001C70.7129 51.0458 71.5556 51.8056 72.0641 52.5324C72.0499 52.5513 72.0358 52.5655 72.0264 52.5844C71.6451 53.0091 71.0283 53.6368 70.0632 54.3353C69.9832 54.3919 69.9031 54.4438 69.8278 54.5005C69.7666 54.5429 69.7054 54.5807 69.6442 54.6232C69.4888 54.7176 69.3288 54.8214 69.1687 54.9205L68.7168 55.1895C68.6603 55.2225 68.5991 55.2556 68.5379 55.2886C68.213 55.4585 67.9541 55.5954 67.7328 55.7039C67.2526 55.9399 66.7488 56.1712 66.2169 56.3977C66.4146 56.3127 66.6076 56.2325 66.7959 56.1476C66.7818 56.1523 66.7677 56.1617 66.7583 56.1664L65.8355 56.5676H65.8308C65.7414 56.6006 65.6566 56.6337 65.5766 56.662C65.6284 56.6431 65.6802 56.6195 65.7319 56.5959C65.666 56.6242 65.6048 56.6478 65.5389 56.6714C65.2988 56.7611 65.087 56.8413 64.8986 56.9074C64.5079 57.0443 64.103 57.1811 63.7076 57.3086C63.1473 57.4879 62.54 57.6672 61.8997 57.8371C61.4901 57.941 61.1653 58.0212 60.8969 58.0873C60.7981 58.1109 60.6945 58.1345 60.5909 58.1581C60.4732 58.1817 60.3555 58.21 60.2378 58.2336L59.5269 58.3752C59.2256 58.4365 58.9196 58.4931 58.6324 58.545C58.6042 58.5498 58.5712 58.5545 58.543 58.5592C57.7897 58.6725 57.2624 58.748 56.8623 58.8046C56.7304 58.8188 56.5986 58.8377 56.4668 58.8518L55.078 58.9934C54.8661 59.0123 54.6448 59.0264 54.4283 59.0406C54.2447 59.0548 54.0658 59.0642 53.8822 59.0736L53.5762 59.0925C52.145 59.1586 50.7844 59.1633 49.4991 59.1208C48.115 59.0642 46.6697 58.9462 45.1678 58.7621C44.6924 58.6961 44.2027 58.6253 43.7319 58.5545L42.7574 58.3893C42.7292 58.3846 42.7009 58.3799 42.6727 58.3704C42.442 58.3232 42.2066 58.276 41.9759 58.2241L41.6416 58.1486C40.8978 57.9787 40.1445 57.7852 39.3818 57.5728C38.6568 57.3605 38.0542 57.167 37.5834 57.0065C37.4799 56.9687 37.381 56.9357 37.2821 56.9027C37.155 56.8508 37.0138 56.7988 36.8725 56.7422L35.7615 56.2986C35.7191 56.2797 35.6767 56.2608 35.6391 56.2467L34.8434 55.8738C34.6598 55.7842 34.4856 55.6992 34.3161 55.619C34.2879 55.6048 34.2596 55.5859 34.2267 55.5718L33.7182 55.2981L33.0403 54.9205C32.6448 54.6656 32.32 54.4627 32.0234 54.2598C31.8775 54.1512 31.7503 54.0616 31.6421 53.9813C31.5903 53.9436 31.5338 53.9011 31.4773 53.8539C30.9029 53.3961 30.3756 52.8911 29.9425 52.3342C29.9195 52.0907 30.7334 51.4847 30.7334 51.4847C30.8747 51.362 31.0253 51.2299 31.1713 51.1024L31.2278 51.0552C31.5055 50.8334 31.7974 50.6258 32.0752 50.4323C32.5177 50.1397 33.0121 49.8282 33.4122 49.5875C33.7842 49.394 34.222 49.1722 34.6598 48.9598C35.5967 48.5114 36.8819 47.964 38.5203 47.4448L39.2877 47.2089C39.3583 47.19 39.4336 47.1664 39.5042 47.1475C39.6267 47.1145 39.7444 47.0814 39.8668 47.0484C40.4882 46.8927 40.9307 46.7794 41.2838 46.6992C41.3639 46.6803 41.4439 46.6614 41.5239 46.6425C41.571 46.6331 41.6228 46.6237 41.6699 46.6142L42.6162 46.4254C42.9175 46.3688 43.2282 46.3122 43.5107 46.2603C44.5511 46.1092 45.827 45.9488 46.8862 45.8355C47.2158 45.8072 47.5312 45.7836 47.8325 45.7647L49.2355 45.6845L49.9275 45.675H50.4077C52.2438 45.675 54.1411 45.7647 56.0996 45.9582L57.14 46.0856L57.7144 46.1659L58.6842 46.3311C59.7906 46.534 60.8969 46.7794 62.0033 47.0673C62.9449 47.3316 63.8205 47.61 64.6115 47.8885C64.861 47.9781 65.1152 48.0725 65.3553 48.1622C66.4381 48.5964 67.488 49.0825 68.4908 49.6158L68.8909 49.8376C68.9286 49.8612 68.971 49.8848 69.0133 49.9084C69.0275 49.9179 69.0369 49.9226 69.051 49.932L69.0463 49.9509ZM58.9384 58.4979C58.8631 58.512 58.7925 58.5262 58.7172 58.5356C58.8208 58.5167 58.9196 58.4979 59.0185 58.479L58.9384 58.4931V58.4979ZM39.3771 57.587C39.4948 57.62 39.6172 57.6531 39.7349 57.6861C39.6125 57.6531 39.4948 57.62 39.3771 57.587Z" stroke="#282C34" stroke-miterlimit="10" stroke-linejoin="round"/>
<path id="Vector 2447" d="M71.9664 52.4969C71.8261 51.6156 71.8702 49.2641 73.1682 46.9084" stroke="#282C34"/>
<path id="Vector 2448" d="M29.907 52.4102C29.7555 50.9259 28.8891 47.6484 26.6353 46.4123" stroke="#282C34"/>
<path id="Vector 2449" d="M30.1042 52.1906C30.6477 51.4209 31.2213 49.9122 30.5692 48.173" stroke="#282C34"/>
<path id="Vector 2450" d="M71.7623 52.0961C71.0484 51.4472 70.3413 50.0184 70.7048 48.253" stroke="#282C34"/>
</g>
</g>
</svg>
