<svg width="102" height="102" viewBox="0 0 102 102" fill="none" xmlns="http://www.w3.org/2000/svg">
<g id="image">
<g id="Group 277131862">
<path id="Vector 1" d="M10.8955 80.2332C14.8221 82.7314 19.8127 85.2057 19.8127 85.2057C12.0666 76.2185 12.3548 49.9877 42.1456 34.4174C44.5633 34.1683 46.7743 34.1777 50.137 36.1221C45.3416 33.3493 44.6028 32.9241 40.7239 30.664C35.1661 27.4256 23.5869 28.7741 12.1423 46.923C6.81967 55.3636 2.09631 72.6503 10.8955 80.2332Z" fill="#FF59A3"/>
<path id="Vector 2" d="M46.9484 34.473C49.755 36.524 51.1583 38.467 54.8285 40.9498C61.7595 28.1651 79.953 8.54691 89.9173 12.4625C86.917 10.5308 83.6017 8.67582 80.8283 7.04841C68.9541 1.86696 53.6411 16.6618 46.9484 34.473Z" fill="#FF59A3"/>
<path id="Vector 3" d="M84.735 42.4611C91.2113 31.4513 88.9695 17.2035 78.6074 20.6909C80.5523 25.1955 78.9517 33.0743 74.7418 39.6648C71.3774 44.9318 66.2934 49.7076 60.0254 49.5354C68.3948 60.2461 77.3384 55.0353 84.735 42.4611Z" fill="#282C34"/>
<path id="Vector 4" d="M20.3466 72.218C28.7159 82.9287 37.6174 78.2928 45.014 65.7186C47.9846 60.6686 51.6657 56.2815 51.3039 51.9776C49.0782 46.7037 45.7596 41.8571 40.1504 43.7449C41.7993 45.515 42.5429 47.2388 42.5429 47.2388C39.7885 55.8967 30.5956 74.1373 20.3466 72.218Z" fill="#282C34"/>
<path id="Vector" d="M74.397 13.8437C85.8891 7.20657 95.2617 12.553 95.3031 25.7563C95.3386 38.9595 86.0253 55.0935 74.5331 61.7307C69.6426 64.5549 64.681 64.9812 60.1872 62.974C58.2215 62.0918 56.4275 60.7478 54.9118 59.0604C53.4079 62.4945 51.6258 65.9048 49.6719 69.0428C45.2018 76.2306 40.252 81.5237 35.3674 84.3479C23.8753 90.9851 14.5027 85.6386 14.4613 72.4354C14.4258 59.2321 23.7391 43.0981 35.2312 36.461C40.1632 33.6131 45.1248 33.3644 49.5772 35.7564C51.5133 36.7984 53.3014 38.3082 54.8585 40.191C56.3979 36.5142 58.1741 32.95 60.0984 29.6817C64.5212 22.1683 69.465 16.6916 74.4029 13.8437H74.397ZM35.3378 75.6563C40.3349 72.7729 47.4398 63.1043 50.7969 52.0621C46.7234 43.9685 40.0093 42.3995 35.249 45.1467C27.9251 49.3741 21.9925 59.6525 22.0161 68.0659C22.0398 76.4733 28.0139 79.8837 35.3378 75.6563ZM74.5095 53.039C81.8334 48.8116 87.766 38.5273 87.7423 30.1198C87.7186 21.7065 81.7446 18.302 74.4206 22.5294C69.6604 25.2767 62.9758 34.59 58.9616 47.3492C62.3719 54.4837 69.5064 55.9284 74.5035 53.039" fill="white"/>
<path id="Vector_2" d="M95.3031 25.7563C95.3386 38.9595 86.0253 55.0935 74.5331 61.7307C69.6426 64.5549 64.681 64.9812 60.1872 62.974C58.2215 62.0918 56.4275 60.7478 54.9118 59.0604C53.4079 62.4945 51.6258 65.9048 49.6719 69.0428C46.3682 74.355 42.8026 78.6323 39.1949 81.6429M35.3674 84.3479C23.8753 90.9851 14.5027 85.6386 14.4613 72.4354C14.4258 59.2321 23.7391 43.0981 35.2312 36.461C40.1632 33.6131 45.1248 33.3644 49.5772 35.7564C51.5133 36.7984 53.3014 38.3082 54.8585 40.191C56.3979 36.5142 58.1741 32.95 60.0984 29.6817C64.5212 22.1683 69.465 16.6916 74.4029 13.8437H74.397C83.6373 8.50707 91.5073 10.9179 94.2582 18.931M74.5095 53.039C81.8334 48.8116 87.766 38.5273 87.7423 30.1198C87.7186 21.7065 81.7446 18.302 74.4206 22.5294C69.6604 25.2767 62.9758 34.59 58.9616 47.3492C62.3719 54.4837 69.5064 55.9284 74.5035 53.039M35.3378 75.6563C40.3349 72.7729 47.4398 63.1043 50.7969 52.0621C46.7234 43.9685 40.0093 42.3995 35.249 45.1467C27.9251 49.3741 21.9925 59.6525 22.0161 68.0659C22.0398 76.4733 28.0139 79.8837 35.3378 75.6563Z" stroke="#282C34" stroke-linejoin="bevel"/>
</g>
</g>
</svg>
