<svg width="102" height="102" viewBox="0 0 102 102" fill="none" xmlns="http://www.w3.org/2000/svg">
<g id="image">
<g id="Group 277131725">
<g id="Group 277131683">
<g id="Group">
<path id="Vector" fill-rule="evenodd" clip-rule="evenodd" d="M18.1331 29.7428C17.7983 29.6591 17.5053 29.5335 17.2437 29.3661V40.3958L20.9272 49.2384L25.1026 46.4548L18.1331 29.7428Z" fill="#FF59A3"/>
<path id="Vector_2" fill-rule="evenodd" clip-rule="evenodd" d="M72.9889 27.8905L69.1169 45.7327L71.5133 46.9885L73.4598 38.5958V27.744C73.3028 27.8068 73.1563 27.8487 72.9993 27.8905H72.9889Z" fill="#FF59A3"/>
<path id="Vector_3" fill-rule="evenodd" clip-rule="evenodd" d="M92.1914 58.6043L62.4718 61.8274L50.8456 78.2255L35.2637 62.0262L5.59648 59.9124L5.08372 59.9229L5 71.7165L35.2637 73.8618L50.8456 90.061L62.4718 73.6629L93.196 70.3352L93.3843 58.6566L92.1914 58.6043Z" fill="#FF59A3"/>
</g>
<path id="Vector_4" fill-rule="evenodd" clip-rule="evenodd" d="M35.2115 62.0473L50.8457 78.3093L62.5242 61.838L93.3845 58.4997L69.1902 45.7747L72.947 27.6395L46.6808 37.0263L17.6937 29.1046L24.9981 46.6119L5.08386 59.8915L35.2115 62.0473Z" stroke="#282C34" stroke-miterlimit="1.5" stroke-linecap="square"/>
</g>
<g id="Group 277131684">
<path id="Vector_5" d="M39.363 10.4041C74.908 8.70069 94.2184 22.0493 94.2451 30.4689C94.2565 35.2143 89.168 39.9332 80.4815 44.096C79.2355 44.693 77.9156 45.2787 76.526 45.8513M65.9086 49.5709C62.5709 50.5701 59.4411 51.4386 55.2313 52.3614C52.2464 53.0157 50.4384 53.2988 47.5438 53.8202" stroke="#282C34" stroke-miterlimit="10"/>
</g>
<path id="Star 1" d="M25.8791 6.39541L28.8195 11.389L26.9428 16.8716L31.9363 13.9313L37.419 15.808L34.4786 10.8144L36.3554 5.3318L31.3618 8.27219L25.8791 6.39541Z" fill="#282C34"/>
</g>
</g>
</svg>
