<svg width="24" height="24" viewBox="0 0 24 24" fill="none" xmlns="http://www.w3.org/2000/svg">
<g id="servicing">
<path id="servicing_2" d="M5.2757 11.7485L5.70459 12.0088L5.96341 11.579C6.23805 11.123 6.72881 10.8243 7.28431 10.8243C8.13252 10.8243 8.83333 11.5249 8.83333 12.4054V16.9459C8.83333 17.8265 8.13252 18.527 7.28431 18.527C6.72881 18.527 6.23805 18.2284 5.96341 17.7724L5.70459 17.3426L5.2757 17.6029C5.10024 17.7093 4.8959 17.7703 4.67647 17.7703C4.03401 17.7703 3.5 17.2392 3.5 16.5676V12.7842V12.7838L3.50001 12.7783V12.7774V11.5111C3.50001 6.52626 7.53751 2.5 12.5 2.5C17.4625 2.5 21.5 6.52626 21.5 11.5111L21.5 12.7802V12.7807L21.5 12.7838V12.7843V16.5676C21.5 17.2392 20.966 17.7703 20.3235 17.7703C20.1785 17.7703 20.0407 17.7437 19.9136 17.6954L19.3193 17.4695L19.2399 18.1004C19.239 18.1079 19.238 18.1154 19.237 18.1229L18.1721 18.4574C18.0284 18.5026 17.8753 18.527 17.7157 18.527C16.8675 18.527 16.1667 17.8265 16.1667 16.9459V12.4054C16.1667 11.5249 16.8675 10.8243 17.7157 10.8243C18.2712 10.8243 18.762 11.123 19.0366 11.579L19.2954 12.0088L19.7243 11.7485C19.8998 11.642 20.1041 11.5811 20.3235 11.5811C20.4593 11.5811 20.5887 11.6044 20.7088 11.6469L21.4045 11.8933L21.3754 11.1559C21.1887 6.42603 17.2945 2.63514 12.5 2.63514C7.7055 2.63514 3.81132 6.42603 3.62466 11.1559L3.59555 11.8933L4.29119 11.6469C4.41132 11.6044 4.54074 11.5811 4.67647 11.5811C4.8959 11.5811 5.10024 11.642 5.2757 11.7485ZM18.7562 19.1823L19.1767 18.4456C18.8493 19.8003 17.6472 20.7973 16.2255 20.7973H14.6649H14.2758L14.1802 21.1745C13.9857 21.942 13.3024 22.5 12.5 22.5C11.5489 22.5 10.7647 21.7148 10.7647 20.7297C10.7647 19.7447 11.5489 18.9595 12.5 18.9595C13.3024 18.9595 13.9857 19.5175 14.1802 20.285L14.2758 20.6622H14.6649H16.2255C17.3104 20.6622 18.2532 20.0635 18.7562 19.1823ZM3.61767 12.777H3.61766V12.7801L3.61765 16.5676C3.61765 17.1498 4.08441 17.6351 4.67647 17.6351C5.26853 17.6351 5.73529 17.1498 5.73529 16.5676V12.7838C5.73529 12.2015 5.26853 11.7162 4.67647 11.7162C4.08672 11.7162 3.62127 12.1978 3.61767 12.777ZM21.3823 12.7808L21.3823 12.7799C21.3803 12.1994 20.9143 11.7162 20.3235 11.7162C19.7315 11.7162 19.2647 12.2015 19.2647 12.7838V16.5676C19.2647 17.1498 19.7315 17.6351 20.3235 17.6351C20.9156 17.6351 21.3824 17.1498 21.3824 16.5676V12.7838V12.7829L21.3823 12.7808ZM19.1471 16.9459V12.4054C19.1471 11.6142 18.5135 10.9595 17.7157 10.9595C16.9179 10.9595 16.2843 11.6142 16.2843 12.4054V16.9459C16.2843 17.7372 16.9179 18.3919 17.7157 18.3919C18.5135 18.3919 19.1471 17.7372 19.1471 16.9459ZM5.85294 12.4054V16.9459C5.85294 17.7372 6.4865 18.3919 7.28431 18.3919C8.08213 18.3919 8.71569 17.7372 8.71569 16.9459V12.4054C8.71569 11.6142 8.08213 10.9595 7.28431 10.9595C6.4865 10.9595 5.85294 11.6142 5.85294 12.4054Z" stroke="white"/>
</g>
</svg>
