<svg width="24" height="24" viewBox="0 0 24 24" fill="none" xmlns="http://www.w3.org/2000/svg">
<g id="telegram">
<g id="Union">
<path d="M15.2978 7.85145C15.2978 7.85145 13.1043 8.77234 12.4575 9.06012C10.7702 9.77957 5.90515 11.8228 5.90515 11.8228C4.75217 12.2833 5.42708 12.7149 5.42708 12.7149C5.42708 12.7149 6.41134 13.0603 7.25499 13.3193C8.09864 13.5783 8.54858 13.2905 8.54858 13.2905C8.54858 13.2905 10.5171 11.9667 12.5137 10.5566C13.9198 9.57812 13.5823 10.3839 13.2449 10.7292C12.5137 11.4775 11.3045 12.6574 10.2921 13.607C9.84217 14.0099 10.0671 14.3553 10.264 14.5279C10.8363 15.0235 12.1837 15.9244 12.7963 16.334C12.9664 16.4478 13.0798 16.5236 13.1043 16.5424C13.2449 16.6575 14.0323 17.1755 14.5104 17.0604C14.9884 16.9453 15.0447 16.2834 15.0447 16.2834C15.0447 16.2834 15.4102 13.9236 15.7477 11.7652C15.8102 11.3417 15.8727 10.9269 15.9309 10.5402C16.0825 9.53446 16.2055 8.71801 16.2258 8.42701C16.3101 7.44856 15.2978 7.85145 15.2978 7.85145Z" fill="#4EA4F6"/>
<path d="M23 12C23 18.0751 18.0751 23 12 23C5.92487 23 1 18.0751 1 12C1 5.92487 5.92487 1 12 1C18.0751 1 23 5.92487 23 12ZM21.3077 12C21.3077 6.8595 17.1405 2.69231 12 2.69231C6.8595 2.69231 2.69231 6.8595 2.69231 12C2.69231 17.1405 6.8595 21.3077 12 21.3077C17.1405 21.3077 21.3077 17.1405 21.3077 12Z" fill="#4EA4F6"/>
</g>
</g>
</svg>
