<svg width="24" height="24" viewBox="0 0 24 24" fill="none" xmlns="http://www.w3.org/2000/svg">
<g id="tik-tok">
<g id="Group 2">
<circle id="Oval" cx="11.8438" cy="11.8438" r="10.5938" stroke="#282C34" stroke-width="1.125"/>
<g id="Group 17">
<mask id="mask0_75_13047" style="mask-type:luminance" maskUnits="userSpaceOnUse" x="5" y="4" width="15" height="15">
<rect id="Mask" x="5.3374" y="4.12019" width="14.1783" height="14.1783" fill="white"/>
</mask>
<g mask="url(#mask0_75_13047)">
<g id="Group 17_2">
<g id="Group 3">
<mask id="mask1_75_13047" style="mask-type:luminance" maskUnits="userSpaceOnUse" x="5" y="9" width="6" height="8">
<path id="Clip 2" fill-rule="evenodd" clip-rule="evenodd" d="M5.93848 9.09756H10.8213V16.9172H5.93848V9.09756Z" fill="white"/>
</mask>
<g mask="url(#mask1_75_13047)">
<path id="Fill 1" fill-rule="evenodd" clip-rule="evenodd" d="M10.8213 9.69939V9.14734C10.6299 9.11702 10.4362 9.10028 10.2421 9.09757C8.36381 9.09395 6.70133 10.3107 6.13707 12.1021C5.57281 13.894 6.23888 15.8443 7.78054 16.9172C6.62577 15.6805 6.30495 13.8818 6.96197 12.3225C7.61855 10.7637 9.13034 9.73649 10.8213 9.69939Z" fill="#25F4EE"/>
</g>
</g>
<path id="Fill 4" fill-rule="evenodd" clip-rule="evenodd" d="M10.9255 15.9528C11.9758 15.9515 12.8391 15.1243 12.8848 14.0754V4.71327H14.5953C14.5604 4.51734 14.5437 4.31914 14.5455 4.1205H12.2061V13.4736C12.1672 14.5279 11.302 15.3628 10.2468 15.3646C9.9314 15.3619 9.62144 15.2845 9.3418 15.1383C9.70922 15.6474 10.2979 15.9501 10.9255 15.9528Z" fill="#25F4EE"/>
<path id="Fill 6" fill-rule="evenodd" clip-rule="evenodd" d="M17.7898 7.88942V7.36904C17.1603 7.3695 16.545 7.18352 16.0205 6.8351C16.4798 7.3695 17.1015 7.73964 17.7898 7.88942Z" fill="#25F4EE"/>
<path id="Fill 8" fill-rule="evenodd" clip-rule="evenodd" d="M16.0201 6.83532C15.5038 6.24707 15.2188 5.49095 15.2192 4.70858H14.5952C14.7581 5.5828 15.2735 6.35205 16.0201 6.83532Z" fill="#FE2C55"/>
<path id="Fill 10" fill-rule="evenodd" clip-rule="evenodd" d="M10.2422 11.4372C9.34084 11.4417 8.55847 12.0589 8.34444 12.9345C8.13041 13.8101 8.53992 14.7187 9.33722 15.1386C8.90508 14.5418 8.844 13.7535 9.17884 13.0979C9.51414 12.4422 10.1888 12.0295 10.9255 12.03C11.1219 12.0322 11.3169 12.063 11.5047 12.1205V9.74034C11.3128 9.71183 11.1192 9.69645 10.9255 9.69509H10.8214V11.5051C10.6327 11.4544 10.4377 11.4313 10.2422 11.4372Z" fill="#FE2C55"/>
<g id="Group 14">
<mask id="mask2_75_13047" style="mask-type:luminance" maskUnits="userSpaceOnUse" x="7" y="7" width="12" height="12">
<path id="Clip 13" fill-rule="evenodd" clip-rule="evenodd" d="M7.78027 7.8894H18.4683V18.2872H7.78027V7.8894Z" fill="white"/>
</mask>
<g mask="url(#mask2_75_13047)">
<path id="Fill 12" fill-rule="evenodd" clip-rule="evenodd" d="M17.7895 7.8894V9.69939C16.6243 9.69713 15.489 9.32834 14.5451 8.64507V13.4008C14.5401 15.7737 12.6148 17.695 10.2419 17.695C9.36085 17.6964 8.50065 17.4249 7.78027 16.9172C8.98211 18.2095 10.8527 18.6353 12.4957 17.9896C14.1388 17.3439 15.2189 15.7588 15.2193 13.9936V9.25142C16.1664 9.93017 17.3031 10.2944 18.4683 10.2922V7.9618C18.2402 7.96135 18.0126 7.93692 17.7895 7.8894Z" fill="#FE2C55"/>
</g>
</g>
<path id="Fill 15" fill-rule="evenodd" clip-rule="evenodd" d="M14.5453 13.401V8.64522C15.4923 9.32442 16.6286 9.68868 17.7942 9.68596V7.87598C17.1055 7.73072 16.4829 7.36556 16.0204 6.83523C15.2733 6.35197 14.7584 5.58317 14.595 4.7085H12.8846V14.0752C12.8502 14.9109 12.2909 15.6331 11.49 15.8748C10.6895 16.1169 9.82345 15.8245 9.33249 15.1476C8.53519 14.7277 8.12568 13.8191 8.34017 12.9435C8.55375 12.0684 9.33611 11.4507 10.2375 11.4462C10.4339 11.448 10.6289 11.4783 10.8167 11.5367V9.72669C9.11575 9.75565 7.59309 10.7864 6.93426 12.3543C6.27588 13.9227 6.60575 15.7318 7.7759 16.9666C8.50307 17.4581 9.36462 17.7124 10.242 17.6952C12.6149 17.6952 14.5403 15.7739 14.5453 13.401Z" fill="#282C34"/>
</g>
</g>
</g>
</g>
</g>
</svg>
