<svg width="24" height="24" viewBox="0 0 24 24" fill="none" xmlns="http://www.w3.org/2000/svg">
<g id="vk_tarifi">
<g id="Vector">
<path fill-rule="evenodd" clip-rule="evenodd" d="M12 21.6091C17.307 21.6091 21.6091 17.307 21.6091 12C21.6091 6.69304 17.307 2.3909 12 2.3909C6.69304 2.3909 2.3909 6.69304 2.3909 12C2.3909 17.307 6.69304 21.6091 12 21.6091ZM12 23C18.0751 23 23 18.0751 23 12C23 5.92487 18.0751 1 12 1C5.92487 1 1 5.92487 1 12C1 18.0751 5.92487 23 12 23Z" fill="#0077FF"/>
<path d="M12.2453 15.6044C8.68117 15.6044 6.64829 13.2549 6.56358 9.34538H8.3489C8.40754 12.2149 9.72369 13.4303 10.7662 13.681V9.34538H12.4473V11.8202C13.4768 11.7137 14.5583 10.5859 14.9232 9.34538H16.6043C16.3241 10.8741 15.1513 12.0019 14.3173 12.4655C15.1513 12.8414 16.4871 13.8251 16.9953 15.6044H15.1448C14.7473 14.414 13.757 13.493 12.4473 13.3677V15.6044H12.2453Z" fill="#0077FF"/>
</g>
</g>
</svg>
