<svg width="24" height="24" viewBox="0 0 24 24" fill="none" xmlns="http://www.w3.org/2000/svg">
<g id="32px/wink_1000-100">
<path id="logo_wink copy" fill-rule="evenodd" clip-rule="evenodd" d="M4.21632 7.41303L4.29855 7.31894L9.19177 2.49083C9.51719 2.16975 10.0402 2.16972 10.3656 2.49077L19.401 11.4042C19.7327 11.7314 19.7327 12.2667 19.4011 12.594L10.3657 21.5092C10.0403 21.8303 9.51721 21.8303 9.19177 21.5092L4.29855 16.681C3.96694 16.3538 3.96688 15.8187 4.29843 15.4914L7.83503 11.9989L4.29855 8.50871C3.99704 8.21121 3.96963 7.74179 4.21632 7.41303ZM17.6241 11.9989L9.77845 4.25905L6.07456 7.9128L9.613 11.4042C9.91446 11.7017 9.94192 12.171 9.69532 12.4998L9.61312 12.5939L6.07456 16.085L9.77845 19.7398L17.6241 11.9989Z" fill="#FF4F12"/>
</g>
</svg>
