<svg width="24" height="24" viewBox="0 0 24 24" fill="none" xmlns="http://www.w3.org/2000/svg">
<g id="icon_youtube">
<g id="icon_youtube_2">
<path d="M15 12.0002L9.75 15V9.00003L15 12.0002Z" fill="white"/>
<path d="M11.9859 4.50003L11.9875 4.50003L12.058 4.50013C12.1036 4.50023 12.1704 4.50044 12.2559 4.50084C12.4268 4.50164 12.6723 4.50324 12.9716 4.50645C13.5698 4.51286 14.384 4.52568 15.2468 4.55136C16.1083 4.57701 17.0243 4.61565 17.824 4.67414C18.6017 4.73102 19.3339 4.81054 19.791 4.93346C20.8839 5.22412 21.7515 6.07748 22.048 7.16667C22.2778 8.00604 22.3863 9.2374 22.4409 10.2054C22.4689 10.7007 22.4836 11.1472 22.4914 11.4698C22.4953 11.6312 22.4974 11.7621 22.4986 11.853C22.4992 11.8985 22.4995 11.934 22.4997 11.9584L22.4999 11.9865L22.5 11.9971L22.5 12.0002L22.5 12.0032L22.5 12.0107L22.4999 12.039C22.4998 12.0635 22.4996 12.0991 22.4992 12.1448C22.4983 12.236 22.4967 12.3673 22.4934 12.5293C22.4868 12.8529 22.4737 13.3007 22.4473 13.7969C22.3959 14.7655 22.2908 15.9987 22.0603 16.8343C21.7636 17.9231 20.8959 18.7764 19.803 19.0667C19.3458 19.1896 18.6139 19.2691 17.8365 19.3259C17.0368 19.3844 16.1208 19.4231 15.2593 19.4487C14.3965 19.4744 13.5823 19.4872 12.9841 19.4936C12.6848 19.4968 12.4393 19.4984 12.2684 19.4992C12.1829 19.4996 12.1161 19.4998 12.0705 19.4999L11.9996 19.5L11.9295 19.4999C11.8839 19.4998 11.8171 19.4996 11.7316 19.4992C11.5607 19.4984 11.3152 19.4968 11.0159 19.4936C10.4177 19.4872 9.60347 19.4744 8.74072 19.4487C7.87918 19.4231 6.96322 19.3844 6.16347 19.3259C5.38579 19.269 4.65367 19.1895 4.19652 19.0666C3.10356 18.7761 2.23597 17.9225 1.9395 16.8335C1.70938 15.9928 1.60418 14.7603 1.55269 13.7923C1.52633 13.2969 1.51318 12.8503 1.50661 12.5276C1.50332 12.3661 1.50167 12.2352 1.50084 12.1443C1.50042 12.0988 1.50021 12.0632 1.50011 12.0388L1.50001 12.0107L1.5 12L1.50001 11.9895L1.5001 11.9615C1.50021 11.9371 1.50041 11.9016 1.50081 11.8561C1.50162 11.7653 1.50322 11.6345 1.5064 11.4732C1.51278 11.1509 1.52552 10.7049 1.55106 10.2105C1.60099 9.24427 1.70295 8.01565 1.92604 7.18252L1.9268 7.17969C2.22313 6.09004 3.09093 5.2365 4.18402 4.94593C4.64056 4.82318 5.37213 4.7428 6.14984 4.68476C6.94948 4.62508 7.86534 4.58486 8.72684 4.55764C9.58954 4.53039 10.4038 4.516 11.0019 4.50842C11.3011 4.50462 11.5467 4.50253 11.7176 4.50138C11.8031 4.50081 11.8699 4.50047 11.9155 4.50028L11.9859 4.50003ZM19.4048 6.38288L19.4022 6.38218C19.102 6.30132 18.505 6.22795 17.7146 6.17014C16.9456 6.1139 16.0537 6.07605 15.2021 6.0507C14.3517 6.02538 13.5475 6.0127 12.9555 6.00636C12.6597 6.00319 12.4172 6.00161 12.2488 6.00082C12.1647 6.00043 12.0991 6.00023 12.0546 6.00013L11.9884 6.00003L11.9218 6.00026C11.8774 6.00045 11.8118 6.00078 11.7276 6.00135C11.5593 6.00248 11.3168 6.00455 11.0209 6.0083C10.4289 6.0158 9.62463 6.03003 8.7742 6.0569C7.92257 6.0838 7.03065 6.12319 6.26148 6.1806C5.47116 6.23958 4.87359 6.31364 4.57281 6.39467L4.57009 6.3954C3.98713 6.55009 3.52907 7.00588 3.37459 7.57199C3.19742 8.23473 3.09923 9.31701 3.04907 10.2879C3.02455 10.7624 3.01226 11.1919 3.00611 11.5028C3.00304 11.6581 3.00151 11.7834 3.00075 11.8694C3.00037 11.9124 3.00018 11.9456 3.00009 11.9678L3.00001 11.9926L3.00001 12.0075L3.00009 12.0323C3.00019 12.0545 3.00038 12.0876 3.00078 12.1306C3.00156 12.2166 3.00313 12.3418 3.0063 12.4971C3.01263 12.808 3.0253 13.2376 3.05057 13.7126C3.10232 14.6853 3.2036 15.7705 3.3864 16.4379L3.38673 16.4392C3.54086 17.0058 3.99926 17.4624 4.58261 17.6172L4.58533 17.6179C4.88549 17.6987 5.48252 17.7721 6.27288 17.8299C7.04193 17.8862 7.93376 17.924 8.78535 17.9494C9.63574 17.9747 10.44 17.9874 11.032 17.9937C11.3278 17.9969 11.5703 17.9985 11.7387 17.9992C11.8228 17.9996 11.8884 17.9998 11.9328 17.9999L12 18L12.0672 17.9999C12.1116 17.9998 12.1772 17.9996 12.2613 17.9992C12.4297 17.9985 12.6722 17.9969 12.968 17.9937C13.56 17.9874 14.3643 17.9747 15.2146 17.9494C16.0662 17.924 16.9581 17.8862 17.7271 17.8299C18.5175 17.7721 19.1145 17.6987 19.4147 17.6179L19.4174 17.6172C20.0007 17.4624 20.4591 17.0058 20.6133 16.4392L20.614 16.4364C20.7963 15.7761 20.8976 14.6921 20.9494 13.7173C20.9747 13.2415 20.9874 12.8107 20.9937 12.4989C20.9969 12.3431 20.9984 12.2174 20.9992 12.1311C20.9996 12.088 20.9998 12.0547 20.9999 12.0325L21 12.0076L21 12.0003L20.9998 11.9708C20.9996 11.9486 20.9993 11.9155 20.9987 11.8725C20.9976 11.7865 20.9955 11.6612 20.9918 11.5059C20.9843 11.1949 20.9701 10.7651 20.9433 10.2899C20.8884 9.31722 20.7842 8.23098 20.6011 7.56226L20.6007 7.56099C20.4466 6.99434 19.9883 6.5378 19.4048 6.38288Z" fill="white"/>
</g>
</g>
</svg>
