<svg width="210" height="142" fill="none" xmlns="http://www.w3.org/2000/svg"><g id="Boolean image"><g id="Boolean image 266х165"><path id="Vector" d="M128.228 72.645c-24.807-.463-49.668 0-74.478-.003H26.89c21.913 0 43.824 0 65.737.003 9.441 0 18.894-.138 28.335 0 6.925.103 12.928 2.92 17.59 8.073 6.762 7.472 9.559 17.9 9.222 27.826-.624 14.472-9.56 32.262-26.066 32.322 8.63-.031 15.919-.323 22.501-6.64 6.465-6.207 9.75-15.151 10.486-23.96l.1-1.734c.562-16.069-8.404-35.549-26.571-35.887h.003Z" fill="#282C34"/><path id="Vector_2" d="M112.887 1.187c11.67-.382 23.403-.056 35.079-.084 7.708-.02 15.323-.846 22.023 3.75 7.193 4.933 11.401 13.364 12.893 21.797.437 2.47.64 4.965.656 7.472 0 16.075-7.842 35.051-26.368 35.22-12.822.12-25.648 0-38.47 0" fill="#FF59A3"/><path id="Vector_3" d="M64.899 2.223c-4.209-1.299-8.708-.917-13.05-.93 12.653 0 21.46 11.386 24.498 22.68 1.068 3.97 1.536 8.086 1.464 12.193-.296 14.594-9.194 33.16-25.962 33.18 7.158 0 13.496.156 19.543-4.208 5.276-3.806 8.964-9.548 11.096-15.64 1.402-4 2.16-8.213 2.329-12.449l.025-.873c.24-13.405-6.035-29.66-19.943-33.956v.003Z" fill="#282C34"/><path id="Vector_4" d="M147.775 108.548c.409-11.62-3.64-24.487-13.347-31.567-7.62-5.56-16.886-4.333-25.775-4.333-18.757 0-37.514 0-56.27-.003H31.205c-3.544 0-7.034-.132-10.462.97-23.668 7.604-25.126 44.734-9.341 60.236 7.028 6.902 15.107 6.786 24.208 6.808l54.557.132c7.955.019 15.906.037 23.861.059 3.456.01 7.081.298 10.521-.178 11.368-1.572 18.976-12.124 21.786-22.555.843-3.124 1.305-6.336 1.445-9.569h-.006Z" fill="#fff" stroke="#282C34" stroke-miterlimit="10"/><path id="Vector_5" d="M95.66 106.726c-.072 15.104-8.873 30.336-25.201 30.336-12.81 0-25.623-.059-38.435-.087-6.862-.016-12.776-.485-18.164-5.328C1.506 120.546.648 98.806 10.18 85.714c4.076-5.6 9.924-9.206 16.898-9.397 11.995-.332 24.046.003 36.044.006 7.18 0 14.211-.723 20.39 3.672 6.53 4.643 10.308 12.462 11.604 20.223.36 2.15.53 4.326.54 6.508h.003Z" fill="#282C34" stroke="#282C34" stroke-miterlimit="10"/><path id="Vector_6" d="M190.347 73.725c-4.18-1.403-8.542-1.064-12.888-1.064 17.218.591 25.791 20.087 25.517 35.079-.297 14.516-9.001 32.725-25.517 33.251 7.112-.025 13.288-.034 19.241-4.411 5.227-3.844 8.873-9.585 10.987-15.667 1.373-3.957 2.113-8.127 2.282-12.309l.025-.877c.24-13.37-5.954-29.413-19.644-34.002h-.003Z" fill="#FF59A3"/><g id="Group" stroke="#282C34" stroke-miterlimit="10"><path id="Vector_7" d="M118.423 27.745V23.09l-7.028-.015v4.658c2.342.006 4.686.01 7.028.015v-.003Z"/><path id="Vector_8" d="M117.602 48.156c-3.675 0-7.349 0-11.024-.007 3.675 0 7.349 0 11.024.007Z"/><path id="Vector_9" d="m113.606 23.097 3.996-.007c-3.675-.009-7.349-.015-11.024-.009l7.028.016Z"/><path id="Vector_10" d="M104.423 27.767v-4.651l-7.028-.016v4.655l7.028.015v-.003Z"/><path id="Vector_11" d="M112.163 27.755c-4.924.006-9.847.006-14.767-.003 4.923-.007 9.846-.007 14.767.003Z"/><path id="Vector_12" d="m104.423 23.112 7.74-.012c-4.924-.013-9.847-.013-14.767-.003l7.027.015Z"/><path id="Vector_13" d="m99.612 23.122 3.99-.006c-3.674-.01-7.346-.016-11.02-.01 2.341.006 4.686.013 7.027.016h.003Z"/><path id="Vector_14" d="M129.899 36.007c.19-11.057-4.349-23.76-14.72-29.072-9.76-5-20.353-.198-26.075 8.452-6.675 10.086-7.421 24.022-2.585 35.013 4.143 9.413 13.44 17.305 24.252 14.782 12.678-2.958 18.875-17.27 19.128-29.175Z"/><path id="Vector_15" d="M120.898 39.647c.006 6.436-3.578 8.496-9.5 8.5V43.49c3.147 0 5.785-.087 5.804-3.916.018-3.89-2.726-3.719-5.804-3.716V31.63c5.869-.01 9.516 1.472 9.5 8.014v.003Z"/><path id="Vector_16" d="M119.2 23.06v4.657l-7.802.013v-4.658l7.802-.013Z"/><path id="Vector_17" d="M110.574 23.075v25.074h-3.996V23.081l3.996-.006Z"/><path id="Vector_18" d="M105.135 23.084v4.655l-7.74.013v-4.655l7.74-.013Z"/><path id="Vector_19" d="M96.575 23.097v25.062h-3.993V23.103l3.993-.006Z"/></g><path id="Vector_20" d="M202.975 107.74c.228-12.453-4.93-26.734-16.591-32.72-10.97-5.63-22.915-.303-29.378 9.43-7.527 11.335-8.351 26.987-2.909 39.343 4.664 10.599 15.151 19.486 27.324 16.685 14.261-3.284 21.282-19.349 21.557-32.738h-.003Z" fill="#fff" stroke="#282C34" stroke-miterlimit="10"/><path id="Vector_21" d="M176.519 36.223c0-16.069-7.843-35.045-26.372-35.167-12.822-.085-25.65.062-38.472.094-7.49.018-14 .438-19.931 5.687-13.521 11.965-14.645 36.138-5.154 50.807 4.367 6.75 11.114 11.457 19.268 11.702 11.671.35 23.406 0 35.082 0 7.715 0 15.329.8 22.026-3.807 7.19-4.952 11.402-13.392 12.894-21.838.437-2.47.64-4.968.656-7.475l.003-.003Z" fill="#fff" stroke="#282C34" stroke-miterlimit="10"/><path id="Vector_22" d="M129.905 35.224c-.041 10.997-4.78 23.578-15.261 28.587-9.903 4.733-20.38-.457-25.906-9.207-6.456-10.22-7-24.179-1.939-35.082 4.333-9.332 13.818-16.895 24.536-14.068 12.622 3.33 18.526 17.824 18.566 29.77h.004Z" fill="#282C34"/><path id="Vector_23" d="M123.01 37.602v-5.544l-14.533-.016V13h-4.243v19.036l-14.473-.016v5.538l14.473.019v18.83l4.243.009V37.583l14.533.019Z" fill="#fff"/><path id="Vector_24" d="M193.322 109.596v-5.544l-14.533-.015V84.994h-4.243v19.036l-14.473-.015v5.537l14.473.019v18.83l4.243.009v-18.833l14.533.019Z" fill="#282C34"/><path id="Vector_25" d="M144.978 107.571c.19-11.075-4.362-23.788-14.736-29.125-9.756-5.018-20.365-.266-26.103 8.392-6.69 10.086-7.424 24.029-2.585 35.026 4.146 9.423 13.449 17.349 24.277 14.851 12.69-2.927 18.894-17.239 19.15-29.141l-.003-.003Z" fill="#FF59A3"/><path id="Vector_26" d="M134.778 106.773 115.041 92v29.182l19.737-14.722v.313Z" fill="#fff"/><path id="Vector_27" d="M77.81 36.166c.228-12.362-4.857-26.59-16.446-32.534-10.905-5.597-22.74-.21-29.125 9.46-7.455 11.298-8.286 26.875-2.885 39.18C33.968 62.79 44.358 71.64 56.441 68.816 70.608 65.504 77.538 49.47 77.81 36.17v-.003Z" fill="#FF59A3"/><path id="Vector_28" d="M61.184 52.801v-34.04l-4.209.006v34.034h4.209Z" fill="#fff"/><path id="Vector_29" d="M53.465 44.528V27.054l-4.208.006v17.47h4.208v-.002Z" fill="#fff"/><path id="Vector_30" d="M68.904 44.515V27.032l-4.211.006v17.48h4.211v-.003Z" fill="#fff"/><path id="Vector_31" d="M45.754 40.859V30.744l-4.205.007v10.11c1.402 0 2.803 0 4.205-.002Z" fill="#fff"/><path id="Vector_32" d="M33.84 40.868h4.202V30.754l-4.202.006" fill="#fff"/><g id="Group_2" fill="#fff"><path id="Vector_33" d="m49.216 117.04 4.112-19.54h-2.85l-2.414 12.372h-.196l-2.589-12.378h-2.435L40.3 109.862h-.131l-2.523-12.374H34.41l4.152 19.537h2.544l2.632-12.315 2.61 12.327h2.872l-.003.003Z"/><path id="Vector_34" d="m82.977 117.094-4.208-8.014 3.706-6.568h-3.229l-3.487 6.421V95.559h-3.072v21.522l3.072.006v-3.043l.937-1.662 2.55 4.712 3.728.006.003-.006Z"/><path id="Vector_35" d="M57.868 117.053v-14.569h-3.07v14.566l3.07.006v-.003Z"/><path id="Vector_36" d="M70.302 117.075v-9.498c.01-1.728-.253-4.076-1.933-5.009-1.923-1.067-4.049.135-4.886 1.96h-.152v-2.038h-2.963v14.569l3.072.006v-8.715c0-1.117.902-2.022 2.017-2.022 1.114 0 2.016.905 2.016 2.022v8.715"/><g id="Group_3"><path id="Vector_37" d="m20.306 107.261-4.864 6.045h-.01l4.865-6.045h.01Z"/><path id="Vector_38" d="m15.32 101.216 4.986 6.045h-.01l-4.985-6.045h.01Z"/><path id="Vector_39" d="m21.068 94.066-5.748 7.15h-.009l5.75-7.15h.01-.003Z"/><path id="Vector_40" d="M31.963 107.261 21.067 94.066h-.009l10.896 13.195h.01Z"/><path id="Vector_41" d="m15.442 113.306 5.891 7.15h-.01l-5.89-7.147h.009v-.003Z"/><path id="Vector_42" d="m21.334 120.456 10.63-13.195h-.01l-10.63 13.195h.01Z"/><path id="Vector_43" d="m21.324 120.456 10.633-13.195-10.895-13.195-5.751 7.15 4.986 6.045-4.864 6.045 5.891 7.15Z"/><path id="Vector_44" d="m31.964 107.261-10.63 13.195-5.891-7.15 4.864-6.045-4.986-6.045 5.747-7.15 10.896 13.195Z"/></g><g id="Group_4"><path id="Vector_45" d="m55.645 97.488-1.015 1.255h-.01l1.015-1.255h.01Z"/><path id="Vector_46" d="m54.605 96.233 1.04 1.255h-.01l-1.04-1.252h.01v-.004Z"/><path id="Vector_47" d="m55.803 94.749-1.198 1.484h-.01l1.2-1.484h.008Z"/><path id="Vector_48" d="m58.07 97.485-2.266-2.736h-.01l2.267 2.736h.01Z"/><path id="Vector_49" d="m54.63 98.743 1.227 1.481h-.01l-1.226-1.48h.009Z"/><path id="Vector_50" d="m55.856 100.224 2.21-2.74h-.009l-2.21 2.743h.009v-.003Z"/><path id="Vector_51" d="m55.85 100.224 2.21-2.74-2.266-2.735-1.199 1.484 1.04 1.255-1.015 1.255 1.23 1.481Z"/><path id="Vector_52" d="m58.07 97.485-2.213 2.739-1.227-1.48 1.015-1.256-1.04-1.255 1.199-1.484 2.266 2.736Z"/></g></g></g></g></svg>