<svg width="24" height="24" fill="none" xmlns="http://www.w3.org/2000/svg"><g id="24px/more.tv" fill="#fff"><path id="Union" fill-rule="evenodd" clip-rule="evenodd" d="M16.294 3.196a.75.75 0 0 0-1.143-.972l-2.939 3.454-2.463-1.665a.75.75 0 0 0-.84 1.243l1.445.977H4.838a2.75 2.75 0 0 0-2.75 2.75v9.497a2.75 2.75 0 0 0 2.75 2.75h14.406a2.75 2.75 0 0 0 2.75-2.75V8.983a2.75 2.75 0 0 0-2.75-2.75H13.71l2.584-3.037ZM3.588 8.983c0-.69.56-1.25 1.25-1.25h14.406c.69 0 1.25.56 1.25 1.25v9.497c0 .69-.56 1.25-1.25 1.25H4.838c-.69 0-1.25-.56-1.25-1.25V8.983Z"/><path id="Ellipse 16" d="M16.337 13.731a4.295 4.295 0 1 1-8.59 0 4.295 4.295 0 0 1 8.59 0Z"/></g></svg>