<svg width="102" height="102" fill="none" xmlns="http://www.w3.org/2000/svg"><g id="toggle_w" clip-path="url('#clip0_58_13542')"><g id="Group 277131736"><path id="Vector" d="M34.135 28.99 6.1 45.175C2.945 47 1.336 49.565 1.63 52.307c.294 2.75 2.47 5.45 6.04 7.514s8.255 3.316 13.013 3.49c4.757.168 9.203-.756 12.36-2.581l28.033-16.185c3.156-1.824 4.766-4.39 4.47-7.132-.294-2.749-2.47-5.45-6.04-7.514m-25.372 2.853L6.1 48.936c-2.176 1.251-3.61 2.861-4.2 4.638.725 2.303 2.75 4.502 5.77 6.256 3.57 2.063 8.255 3.315 13.013 3.49 4.757.167 9.203-.757 12.36-2.582l28.033-16.185c2.176-1.25 3.61-2.86 4.2-4.637-.725-2.303-2.75-4.503-5.778-6.256m22.544 17.874a4.376 4.376 0 0 0-.94-.701c-.996-.574-2.295-.933-3.602-.98-1.315-.056-2.534.19-3.395.693-3.283 1.896-8.614 4.972-14.559 8.407m41.701 3.673a4.375 4.375 0 0 0-.941-.7c-.996-.575-2.295-.933-3.61-.98-1.314-.057-2.534.19-3.394.692-3.283 1.897-8.614 4.973-14.56 8.407m-1.481.861c-11.013 6.36-22.655 13.077-28.736 16.591m32.56-39.692c-.995-.574-2.294-.933-3.61-.98-1.314-.056-2.533.19-3.394.693-9.363 5.403-36.305 20.966-45.669 26.368-.86.494-1.29 1.204-1.203 1.96.096.758.71 1.507 1.705 2.08.996.574 2.295.933 3.61.98 1.315.056 2.534-.19 3.395-.693 9.363-5.402 36.305-20.965 45.669-26.368.86-.494 1.29-1.203 1.195-1.96-.096-.758-.71-1.507-1.705-2.08h.008Zm19.197 11.084c-.996-.574-2.294-.924-3.61-.98-1.314-.056-2.533.191-3.394.693-9.363 5.403-36.314 20.966-45.669 26.369-.86.494-1.29 1.203-1.203 1.96.095.757.709 1.506 1.705 2.08.996.574 2.295.932 3.61.98 1.315.056 2.534-.191 3.395-.693 9.363-5.403 36.313-20.966 45.669-26.369.86-.494 1.29-1.203 1.203-1.96-.096-.757-.709-1.506-1.706-2.08Zm-42.218.932A54025.57 54025.57 0 0 0 29.33 76.412l28.735-16.59Z" stroke="#282C34" stroke-linejoin="round"/><path id="Vector_2" fill-rule="evenodd" clip-rule="evenodd" d="m34.159 29.54 3.163 4.925 12.216-.024 6.973-4.9h5.498v7.211c-.024 2.462-1.673 4.933-4.94 6.821-6.559 3.785-17.18 3.81-23.7.04-3.274-1.889-4.892-4.375-4.868-6.861V29.54h5.658Z" fill="#282C34"/><path id="Vector_3" fill-rule="evenodd" clip-rule="evenodd" d="M79.708 61.336c2.909-1.499 7.315-1.499 10.192 0h2.51v6.614c-.008 1.123-.765 2.247-2.255 3.107-2.988 1.73-7.833 1.738-10.806.016-1.49-.86-2.23-1.992-2.223-3.131v-6.614h2.582v.008Z" fill="#282C34"/><path id="Vector_4" fill-rule="evenodd" clip-rule="evenodd" d="M79.381 58.252c2.996-1.73 7.834-1.738 10.814-.016 2.972 1.713 2.956 4.51-.032 6.24-2.988 1.728-7.833 1.737-10.806.015-2.972-1.713-2.956-4.51.032-6.24h-.008Z" fill="#FF59A3"/><path id="Vector_5" fill-rule="evenodd" clip-rule="evenodd" d="M33.569 65.384c2.908-1.498 7.315-1.498 10.192 0h2.51v6.614c-.016 1.123-.765 2.247-2.255 3.108-2.988 1.729-7.834 1.737-10.806.016-1.49-.861-2.231-2-2.223-3.132v-6.614h2.582v.008Z" fill="#282C34"/><path id="Vector_6" fill-rule="evenodd" clip-rule="evenodd" d="M33.242 62.3c2.997-1.73 7.834-1.737 10.814-.016 2.98 1.721 2.956 4.51-.032 6.24-2.988 1.729-7.833 1.737-10.806.015-2.972-1.713-2.956-4.51.032-6.24h-.008Z" fill="#FF59A3"/><path id="Vector_7" d="M28.732 40.067 22.03 43.94m1.211-26.528 6.662 3.849m32.433 18.726 6.662 3.85M45.698 12l-.033 5.459m31.668 12.805-9.45.016m-22.345 14.01-.032 5.458M23.321 30.361l-9.45.016m54.234-13.053-6.701 3.873 3.35-1.936 3.351-1.937Z" stroke="#FF59A3" stroke-linecap="square" stroke-linejoin="bevel"/><path id="Vector_8" fill-rule="evenodd" clip-rule="evenodd" d="M33.441 22.783c6.559-3.785 17.181-3.81 23.7-.04 6.518 3.761 6.486 9.89-.072 13.682-6.559 3.786-17.18 3.81-23.7.04-6.518-3.761-6.486-9.897.072-13.682Zm11.085 8.773-7.196.016-.016 2.901 12.216-.024.064-11.778h-5.02l-.048 8.885Z" fill="#FF59A3"/></g></g><defs><clipPath id="clip0_58_13542"><path fill="#fff" d="M0 0h102v102H0z"/></clipPath></defs></svg>