<svg width="102" height="102" fill="none" xmlns="http://www.w3.org/2000/svg"><g id="image"><g id="Group 1321314131"><g id="Group"><path id="Vector" d="M70.237 36.605c3.166-11.381-2.467-18.618-9.445-20.654 4.266 3.456 6.738 9.609 4.4 18.024-2.76 9.924-10.961 15.23-18.1 14.707a18.82 18.82 0 0 1-4.148-.754c2.317 1.865 5.377 3.105 9.194 3.384 7.138.522 15.339-4.784 18.099-14.707Z" fill="#282C34"/><path id="Vector_2" d="M28.849 49.581c-7.576-14.144.993-45.047 29.69-45.724 2.973-.072 5.93.48 8.702 1.566-4.084-2.935-8.986-4.531-13.935-4.417-28.696.676-37.265 31.579-29.69 45.723 7.3 12.678 15.44 23.066 25.243 38.192 2.242 1.426 3.23 1.911 5.227 3.079-8.206-12.259-18.868-27.338-25.242-38.414l.005-.005Z" fill="#FF59A3"/></g><g id="Group_2" stroke="#282C34"><path id="Vector_3" d="M82.224 23.615c1.295 6.504.268 14.238-4.284 22.618C71.373 58.33 62.815 73.07 54.06 87.772 44.256 72.646 36.114 62.257 28.816 49.58c-7.581-14.144.993-45.047 29.684-45.724 8.594-.2 17.027 4.754 21.32 12.932"/><path id="Vector_4" d="M52.099 51.31c-12.146-.883-16.652-11.489-13.822-21.139 2.632-8.973 10.704-16.17 20.608-14.64 7.784 1.204 14.756 8.689 11.313 21.072-2.76 9.923-10.96 15.229-18.099 14.707Z"/></g></g></g></svg>