<svg width="102" height="102" fill="none" xmlns="http://www.w3.org/2000/svg"><g id="image"><g id="Group 1321314133"><path id="Vector" d="M66.213 56.398c-.165.07-.33.137-.49.207.165-.066.33-.136.49-.207Z" fill="#fff" stroke="#282C34" stroke-miterlimit="10"/><g id="Group" fill="#FF59A3"><path id="Vector_2" d="M33.022 54.93c-1.318-.816-1.652-1.156-2.439-1.874-.367-.382-.659-.717-.659-.717-.004-.01-.014-.019-.023-.033a1.787 1.787 0 0 1-.292-.713c-.946-5.191-6.44-8.995-13.088-8.74l-.198.01C9.101 43.24 3.24 48.29 3.226 54.23c0 .36.019.713.061 1.062l.09.704c.084.67.193 1.34.329 2 .433 2.105 1.14 4.895 3.88 8.972 5.762 8.35 11.802 11.105 11.802 11.105-1.685-1.01-2.721-3.36-2.712-6.328.02-5.947 4.21-13.135 9.407-16.146l.155-.09c2.66-1.496 5.066-1.609 6.789-.575l-.005-.005Z"/><path id="Vector_3" d="M75.266 55.935c-2.565-1.524-4.896-1.69-6.586-.731 0 0-2.043 1.137-6.247 2.454-4.407 1.378-9.454 1.468-9.454 1.468.16-.01.372.915.58 2.581.527 4.29.936 12.511.917 18.458-.01 3.648-.17 5.611-.419 5.63 0 0 7.316.09 15.974-2.477 9.28-2.752 11.765-4.894 11.765-4.894 1.695-.963 2.75-3.082 2.76-6.089.018-5.946-4.205-13.294-9.285-16.395l-.005-.005Z"/><path id="Vector_4" d="M98.414 47.563c-.49-2.209-.988-6.72-7.528-14.116-3.37-3.809-8.248-6.423-8.563-6.612-1.676-.991-3.993-.883-6.563.547-5.217 2.992-9.604 10.364-9.618 16.363-.01 2.983 1.026 5.083 2.711 6.079l.137.099c1.808 1.08 2.768 2.19 3.074 2.6 0 0-.108-.614-.108-1.015.019-6.003 6.45-11.128 13.775-11.444 6.516-.199 11.897 3.502 12.886 8.584l-.198-1.095-.005.01Z"/><path id="Vector_5" d="M48.247 21.526c-.226-1.59-.452-2.464-.63-2.45 0 0-7.854.184-15.217 2.346-7.358 2.161-10.108 3.827-12.028 4.932 1.643-.944 4.063-.704 6.553.75 5.117 3.068 9.256 10.42 9.237 16.424-.01 3.016-1.064 5.116-2.764 6.069.956-.533 4.859-2.435 9.844-3.261 2.43-.401 5.565-.614 5.565-.614.278-.019.466-1.982.476-5.63.019-6.003-.452-14.314-1.04-18.566"/></g><path id="Vector_6" d="m15.583 29.487.528-.387c.376-.278.71-.514 1.068-.75a30.689 30.689 0 0 1 .772-.515.083.083 0 0 1 .024-.018c.014-.01.033-.02.047-.029a69.834 69.834 0 0 1 2.364-1.425c1.082-.604 1.685-.925 2.5-1.312l.089-.042c.014-.01.033-.02.052-.029.009-.005.023-.01.033-.014.15-.07.3-.142.456-.217l.01-.01h.01a32.242 32.242 0 0 1 2.232-.986c.017-.01.041-.014.06-.023l.452-.185c.122-.052.254-.103.39-.155a34.794 34.794 0 0 1 2.241-.83l.264-.09c.014-.005.028-.015.043-.015 1.021-.354 1.826-.6 2.33-.745.198-.062.39-.114.574-.166.16-.047.297-.08.4-.108 1.06-.293 1.596-.44 2.477-.633.485-.113.965-.221 1.44-.32.1-.024.198-.043.302-.067.028-.004.06-.014.09-.018.107-.024.211-.043.315-.067.051-.009.103-.023.16-.033.08-.014.16-.033.24-.047.099-.019.193-.033.287-.052.038-.004.075-.014.113-.019l.617-.103c.296-.052.593-.104.885-.151.63-.109 1.078-.18 1.68-.255.217-.033.42-.057.617-.08a67.549 67.549 0 0 1 3.437-.355 43.544 43.544 0 0 1 2.24-.141c.35-.019.698-.033 1.037-.043 2.212-.094 6.078-.117 10.78.43.024.005.048.01.071.01h.014c4.953.58 10.829 1.797 16.671 4.223.07.029.146.062.217.09.113.047.23.094.343.142l.1.042c.06.024.122.047.183.076.014.004.537.221 1.38.618.451.212.88.42 1.284.623l.024.014c.01.005.019.014.028.014l.48.245a.68.68 0 0 0 .033.015l.024.014c.283.146.546.288.796.42.17.09.334.18.485.264.098.057.193.109.291.165.42.236.754.434.98.571.06.033.127.076.188.114a42.31 42.31 0 0 1 2.382 1.548 28.175 28.175 0 0 1 1.902 1.415c.033.029.07.062.109.09.023.019.051.043.075.061.099.076.193.151.282.227.061.047.123.1.184.146a32.969 32.969 0 0 1 3.263 3.035c1.03 1.076 1.628 1.85 1.821 2.11.02.018.033.042.052.066.043.052.08.103.123.155.019.024.037.052.056.076.353.458.692.916 1.036 1.425.028.038.052.076.08.118 0 .01.01.014.01.02.287.414.555.825.771 1.203.085.141.175.292.269.453l.085.141c.051.09.103.184.16.279 1.86 3.195 2.975 6.815 3.305 10.496.065.712.103 1.467.103 2.246v.476c-.033 2.106-.33 4.201-.89 6.216-.047.18-.094.326-.127.444l.038.033c-.01.028-.028.094-.057.189-.216.722-.339 1.109-.579 1.708l-.019.052c-.004.014-.014.029-.018.043a19.131 19.131 0 0 1-.885 2.072c-.01.014-.02.033-.029.047-.221.49-.395.826-.673 1.317-.165.306-.334.599-.508.891-.01.015-.014.029-.024.043-.188.316-.381.628-.579.93-.014.023-.028.042-.042.066-.198.306-.4.604-.608.897-.014.018-.033.042-.047.066-.212.302-.433.599-.65.882-.014.014-.028.033-.042.052a35.9 35.9 0 0 1-.706.878c-.01.014-.019.023-.028.038-.24.287-.48.561-.716.826l-.188.202c-.16.175-.32.345-.48.51-.175.189-.358.373-.542.557-.141.146-.282.288-.419.415-.136.132-.278.265-.419.397-.165.156-.334.311-.508.472-.061.052-.118.103-.174.155 0 .005-.01.01-.01.01-.226.203-.48.425-.748.647-.198.17-.396.33-.598.495-.203.165-.396.326-.58.467-.169.132-.343.265-.527.401a32.652 32.652 0 0 1-1.53 1.11 33.805 33.805 0 0 1-.814.543c-.575.372-1.163.735-1.761 1.09a34.233 34.233 0 0 1-3.404 1.816c-.014.005-.028.015-.042.02-.15.07-.301.14-.457.216a51.587 51.587 0 0 1-3.38 1.454c-.687.269-1.168.453-1.799.665-.4.137-.659.222-.715.241-.847.288-1.902.609-2.717.84l-.16.043c-.037.014-.075.023-.108.033a8.163 8.163 0 0 1-.273.075 37.968 37.968 0 0 1-3.022.746c-1.799.43-3.611.74-5.353.972-3.583.5-7.255.713-10.913.651-.932 0-2.02-.042-3.183-.118-.814-.033-1.638-.099-2.528-.193C30.573 84.53 17.1 79.344 9.195 69.136a29.033 29.033 0 0 1-3.31-5.22l-.014-.024-.028-.066c-.052-.108-.1-.212-.15-.32-.043-.086-.086-.17-.123-.25a22.232 22.232 0 0 1-.655-1.53 16.68 16.68 0 0 1-.277-.746c-.118-.32-.222-.632-.311-.92-.019-.066-.043-.137-.061-.208-.754-2.373-1.13-4.752-1.13-7.117v-.798a24.127 24.127 0 0 1 .136-2.246v-.037c.01-.048.014-.095.02-.142.046-.439.112-.901.197-1.383.136-.896.39-2.015.654-2.846.014-.042.024-.085.038-.127l.028-.094v-.015c.203-.674.325-1.052.546-1.614l.038-.094v-.014c.287-.76.621-1.539 1.007-2.332.198-.42.368-.74.627-1.203.028-.057.056-.109.089-.165l.019-.033c.094-.17.193-.34.292-.51.014-.033.033-.061.052-.095.089-.155.188-.31.287-.471.028-.043.051-.085.08-.128.127-.198.254-.396.386-.594.037-.057.07-.109.108-.16.028-.043.057-.081.085-.128.113-.17.24-.35.367-.534a29.997 29.997 0 0 1 2.919-3.525M69.046 49.95c.066.038.127.08.189.118l.357.231c1.12.746 1.964 1.506 2.472 2.232-.014.02-.028.034-.038.052a12.168 12.168 0 0 1-1.963 1.751c-.08.057-.16.109-.235.166-.061.042-.123.08-.184.122-.155.095-.315.198-.475.297l-.452.27a6.12 6.12 0 0 1-.18.099c-.324.17-.583.306-.804.415-.48.236-.984.467-1.516.694.198-.085.39-.166.579-.25-.014.004-.028.014-.038.018l-.922.402h-.005c-.09.033-.174.066-.254.094.051-.019.103-.042.155-.066a3.272 3.272 0 0 1-.193.075c-.24.09-.452.17-.64.236a37.553 37.553 0 0 1-2.999.93c-.41.104-.735.184-1.003.25-.099.024-.203.047-.306.071-.118.024-.236.052-.353.076l-.711.141c-.301.062-.607.118-.895.17l-.089.014c-.753.114-1.28.189-1.68.246-.133.014-.264.033-.396.047l-1.389.141c-.212.02-.433.033-.65.048-.183.014-.362.023-.546.033l-.306.019c-1.431.066-2.792.07-4.077.028a53.653 53.653 0 0 1-4.331-.359c-.476-.066-.965-.137-1.436-.208l-.975-.165c-.028-.004-.056-.01-.084-.019-.231-.047-.466-.094-.697-.146l-.334-.075a49.643 49.643 0 0 1-2.26-.576 43.526 43.526 0 0 1-2.1-.67c-.127-.052-.268-.104-.41-.16l-1.11-.444a2.312 2.312 0 0 0-.123-.052l-.796-.373c-.183-.09-.357-.175-.527-.255-.028-.014-.056-.033-.09-.047l-.508-.274-.678-.378c-.395-.254-.72-.457-1.017-.66-.146-.109-.273-.198-.38-.279a9.187 9.187 0 0 1-1.7-1.647c-.024-.243.79-.85.79-.85.142-.122.292-.254.438-.382l.057-.047c.277-.222.57-.43.847-.623.443-.292.937-.604 1.337-.845.372-.193.81-.415 1.248-.627a29.699 29.699 0 0 1 3.86-1.515l.768-.236c.07-.019.146-.043.216-.062.123-.032.24-.066.363-.099.621-.155 1.064-.269 1.417-.349l.24-.056.146-.029.946-.189.895-.165a96.82 96.82 0 0 1 3.375-.424c.33-.029.645-.052.947-.071l1.403-.08.692-.01h.48c1.836 0 3.733.09 5.692.283l1.04.128.574.08.97.165c1.107.203 2.213.448 3.32.736.94.265 1.817.543 2.608.822.249.09.503.183.743.273 1.083.434 2.133.92 3.136 1.454l.4.222c.038.023.08.047.122.07l.038.024-.005.019Zm-10.108 8.547c-.075.014-.146.028-.22.038a36.1 36.1 0 0 0 .3-.057l-.08.014v.005Zm-19.56-.911c.117.033.24.066.357.1l-.358-.1Z" stroke="#282C34" stroke-miterlimit="10" stroke-linejoin="round"/><path id="Vector 2447" d="M71.966 52.497c-.14-.881-.096-3.233 1.202-5.589" stroke="#282C34"/><path id="Vector 2448" d="M29.907 52.41c-.151-1.484-1.018-4.762-3.272-5.998" stroke="#282C34"/><path id="Vector 2449" d="M30.104 52.19a4.353 4.353 0 0 0 .465-4.017" stroke="#282C34"/><path id="Vector 2450" d="M71.762 52.096c-.714-.649-1.42-2.078-1.057-3.843" stroke="#282C34"/></g></g></svg>