<svg width="102" height="102" fill="none" xmlns="http://www.w3.org/2000/svg"><g id="image"><g id="Group 277131862"><path id="Vector 1" d="M10.896 80.233c3.926 2.498 8.917 4.973 8.917 4.973-7.746-8.987-7.458-35.218 22.333-50.789 2.417-.249 4.628-.24 7.991 1.705-4.795-2.773-5.534-3.198-9.413-5.458-5.558-3.238-17.137-1.89-28.582 16.259-5.322 8.44-10.046 25.727-1.246 33.31Z" fill="#FF59A3"/><path id="Vector 2" d="M46.948 34.473c2.807 2.051 4.21 3.994 7.88 6.477 6.931-12.785 25.125-32.403 35.09-28.488-3.001-1.931-6.316-3.786-9.09-5.414-11.874-5.181-27.187 9.614-33.88 27.425Z" fill="#FF59A3"/><path id="Vector 3" d="M84.735 42.461c6.476-11.01 4.234-25.258-6.128-21.77 1.945 4.505.345 12.383-3.865 18.974-3.365 5.267-8.449 10.043-14.717 9.87 8.37 10.711 17.313 5.5 24.71-7.074Z" fill="#282C34"/><path id="Vector 4" d="M20.347 72.218c8.369 10.71 17.27 6.075 24.667-6.5 2.97-5.05 6.652-9.437 6.29-13.74-2.226-5.274-5.544-10.12-11.154-8.233 1.65 1.77 2.393 3.494 2.393 3.494-2.755 8.658-11.947 26.898-22.196 24.979Z" fill="#282C34"/><path id="Vector" d="M74.397 13.844c11.492-6.637 20.865-1.291 20.906 11.912.036 13.203-9.278 29.337-20.77 35.975-4.89 2.824-9.852 3.25-14.346 1.243-1.965-.882-3.76-2.226-5.275-3.914a79.136 79.136 0 0 1-5.24 9.983c-4.47 7.188-9.42 12.48-14.305 15.305-11.492 6.637-20.864 1.29-20.906-11.913-.035-13.203 9.278-29.337 20.77-35.974 4.932-2.848 9.894-3.097 14.346-.705 1.936 1.042 3.724 2.552 5.282 4.435a87.354 87.354 0 0 1 5.24-10.51c4.422-7.513 9.366-12.99 14.304-15.837h-.006Zm-39.06 61.812c4.998-2.883 12.103-12.552 15.46-23.594-4.074-8.093-10.788-9.662-15.548-6.915-7.324 4.227-13.257 14.506-13.233 22.919.024 8.407 5.998 11.818 13.322 7.59ZM74.51 53.04c7.324-4.227 13.257-14.512 13.233-22.92-.023-8.413-5.997-11.817-13.321-7.59-4.76 2.748-11.445 12.061-15.46 24.82 3.41 7.135 10.545 8.58 15.543 5.69" fill="#fff"/><path id="Vector_2" d="M95.303 25.756c.036 13.203-9.278 29.337-20.77 35.975-4.89 2.824-9.852 3.25-14.346 1.243-1.965-.882-3.76-2.226-5.275-3.914a79.136 79.136 0 0 1-5.24 9.983c-3.304 5.312-6.87 9.59-10.477 12.6m-3.828 2.705c-11.492 6.637-20.864 1.29-20.906-11.913-.035-13.203 9.278-29.337 20.77-35.974 4.932-2.848 9.894-3.097 14.346-.705 1.936 1.042 3.724 2.552 5.282 4.435a87.354 87.354 0 0 1 5.24-10.51c4.422-7.513 9.366-12.99 14.304-15.837h-.006c9.24-5.337 17.11-2.926 19.861 5.087M74.51 53.039c7.323-4.227 13.256-14.512 13.232-22.92-.023-8.413-5.997-11.817-13.321-7.59-4.76 2.748-11.445 12.061-15.46 24.82 3.41 7.135 10.545 8.58 15.543 5.69M35.338 75.656c4.997-2.883 12.102-12.552 15.459-23.594-4.074-8.093-10.788-9.662-15.548-6.915-7.324 4.227-13.257 14.506-13.233 22.919.024 8.407 5.998 11.818 13.322 7.59Z" stroke="#282C34" stroke-linejoin="bevel"/></g></g></svg>