<svg width="102" height="102" fill="none" xmlns="http://www.w3.org/2000/svg"><g id="image"><g id="Group 277131725"><g id="Group 277131683" fill-rule="evenodd" clip-rule="evenodd"><g id="Group" fill="#FF59A3"><path id="Vector" d="M18.133 29.743a2.962 2.962 0 0 1-.89-.377v11.03l3.684 8.842 4.176-2.783-6.97-16.712Z"/><path id="Vector_2" d="m72.989 27.89-3.872 17.843 2.396 1.256 1.947-8.393V27.744a3.893 3.893 0 0 1-.46.146h-.011Z"/><path id="Vector_3" d="m92.191 58.604-29.72 3.223-11.625 16.398-15.582-16.199-29.668-2.114-.512.01L5 71.717l30.264 2.146L50.846 90.06l11.626-16.398 30.724-3.328.188-11.678-1.193-.053Z"/></g><path id="Vector_4" d="M35.212 62.047 50.846 78.31l11.678-16.471 30.86-3.338L69.19 45.775l3.757-18.135-26.266 9.386-28.987-7.921 7.304 17.507-19.914 13.28 30.128 2.155Z" stroke="#282C34" stroke-miterlimit="1.5" stroke-linecap="square"/></g><g id="Group 277131684"><path id="Vector_5" d="M39.363 10.404C74.908 8.701 94.218 22.05 94.245 30.47c.011 4.745-5.077 9.464-13.764 13.627a77.478 77.478 0 0 1-3.955 1.755m-10.617 3.72c-3.338 1-6.468 1.868-10.678 2.79-2.985.655-4.793.938-7.687 1.46" stroke="#282C34" stroke-miterlimit="10"/></g><path id="Star 1" d="m25.88 6.395 2.94 4.994-1.877 5.483 4.993-2.94 5.483 1.876-2.94-4.994 1.876-5.482-4.993 2.94-5.483-1.877Z" fill="#282C34"/></g></g></svg>