<svg width="102" height="102" fill="none" xmlns="http://www.w3.org/2000/svg"><g id="image"><g id="Group 277131644"><path id="Vector" d="M63.767 84.208 95.28 65.9c2.29-1.337 3.368-3.111 3.234-4.857-.119-1.553 0-8.513-.063-9.409l-46.101-19.64c-4.337-2.491-11.389-2.482-15.735 0L3.026 44.019c0 3.584-.058 8.612 0 10.304.054 1.607 1.138 3.201 3.25 4.419l9.624 5.557-.628 2.751v10.58l19.516-1.066 13.27 7.662c4.338 2.5 11.39 2.482 15.727 0" fill="#FF59A3"/><path id="Vector_2" d="M95.292 54.745c4.337-2.527 4.337-6.613 0-9.122L52.37 20.892c-4.337-2.527-11.389-2.518-15.735 0L6.27 38.454c-4.328 2.527-4.328 6.613 0 9.113l12.088 6.98-.072.26-3.02 11.649 19.517-1.067 13.27 7.662c4.337 2.536 11.389 2.518 15.726 0l31.514-18.306Z" fill="#fff"/><path id="Vector_3" d="M57.85 33.574c-1.283 3.155-5.623 6.567-5.885 6.696l-6.83-2.183c-8.246 3.76-5.855 14.166-5.723 14.68l6.725 2.226-.172 8.167-9.259-1.233a5.574 5.574 0 0 1-1.97-.67 4.478 4.478 0 0 1-.864-.66 2.608 2.608 0 0 1-.4-.553C22.888 40.889 39.985 31.269 45.936 28.61a3.942 3.942 0 0 1 1.935-.244 5.966 5.966 0 0 1 2.148.703l7.83 4.505Z" fill="#FF59A3"/><path id="Vector_4" d="M56.613 41.895c1.972 1.138 3.011 2.643 2.859 4.184-.162 1.703-1.792 3.27-4.355 4.274-.39.127-.81.127-1.2 0a1.455 1.455 0 0 1-.296-.116.484.484 0 0 1-.287-.44.681.681 0 0 1 .475-.43c2.07-.797 3.333-2.042 3.45-3.404.116-1.219-.708-2.41-2.267-3.316a10.22 10.22 0 0 0-.547-.286h-.063c-.394-.224-.403-.565 0-.789a1.791 1.791 0 0 1 1.577 0c.224.096.442.203.654.323Z" fill="#282C34"/><path id="Vector_5" d="M60.825 39.646c3.055 1.792 4.677 4.166 4.48 6.613-.242 2.634-2.58 5.053-6.389 6.612a1.657 1.657 0 0 1-1.335-.053c-.197-.117-.305-.27-.278-.43.027-.162.153-.323.404-.43 3.315-1.354 5.376-3.468 5.573-5.762.197-2.142-1.218-4.23-3.88-5.762l-.618-.34c-.269-.153-.376-.35-.296-.538a.843.843 0 0 1 .681-.412c.337-.061.684-.017.995.125l.663.377Z" fill="#282C34"/><path id="Vector_6" d="M64.678 36.6c4.48 2.553 6.774 6.164 6.398 9.856-.377 3.691-3.45 7.168-8.414 9.4-.324.12-.68.12-1.004 0l-.206-.09a.465.465 0 0 1-.287-.44.556.556 0 0 1 .386-.43c4.48-2.025 7.32-5.152 7.66-8.548.341-3.396-1.791-6.657-5.814-8.96l-.1-.063a.448.448 0 0 1-.268-.538.834.834 0 0 1 .645-.42c.304-.058.62-.014.896.125l.108.107Z" fill="#282C34"/><path id="Vector_7" d="M36.616 21.242c4.346-2.482 11.398-2.49 15.735 0l42.93 24.785c4.328 2.509 4.328 6.595 0 9.122l-15.757 9.153-7.879 4.576-7.86 4.595c-4.337 2.482-11.39 2.5-15.726 0l-13.27-7.661-19.517 1.066 3.02-11.649.072-.26-12.088-6.98c-4.337-2.5-4.337-6.586 0-9.112l24.808-14.42" stroke="#282C34" stroke-linejoin="bevel"/></g></g></svg>