<svg width="192" height="145" fill="none" xmlns="http://www.w3.org/2000/svg"><path fill="#E8E8E8" d="M0 0h192v145H0z"/><path d="M-4356-2765c0-1.1.9-2 2-2h8057c1.1 0 2 .9 2 2v5485c0 1.1-.9 2-2 2h-8057c-1.1 0-2-.9-2-2v-5485Z" fill="#E1E1E1"/><path fill="#fff" d="M-162-2275h1440V983H-162z"/><path d="M70.167 92.8C33.745 74.936 40.145 51.968 83.782 51.968c11.054 0 26.531 4.176 38.4 3.364 10.938-.812 32.931-9.28 8.494-22.504-19.898-10.788-35.84-10.556-42.472-11.02l3.723-2.436 23.738-13.92s27.346 4.872 47.477 15.892c24.203 13.224 34.094 33.756 6.4 45.588-27.695 11.832-47.826 8.584-60.16 5.684-17.571-4.176-26.88-.232-23.739 4.408.931 1.392 4.073 4.408 4.888 4.524L70.167 92.8Z" fill="#FF59A3"/><path d="M69.934 93.264c-16.872-8.236-25.716-18.328-23.738-27.028 2.211-9.28 16.175-14.848 37.586-14.848 4.887 0 10.589.812 16.64 1.624 7.447 1.044 15.127 2.204 21.76 1.74 7.214-.58 17.803-4.176 18.967-9.512.814-3.596-2.909-7.772-10.706-11.948-17.803-9.628-32.232-10.44-40.029-10.788-.814 0-1.629-.116-2.21-.116l.116-1.16c.698 0 1.396.116 2.21.116 7.797.464 22.459 1.16 40.495 10.904 8.378 4.524 12.218 8.932 11.288 13.224-1.28 6.148-12.684 9.86-20.015 10.44-6.633.464-14.429-.696-21.993-1.74-6.05-.812-11.636-1.624-16.523-1.624-30.837 0-35.724 10.672-36.422 14.036-1.862 8.12 6.749 17.748 23.156 25.752l-.582.928Z" fill="#282C34"/><path d="M89.6 81.78c-1.28-.812-3.608-3.248-4.422-4.408-.931-1.276-.931-2.668-.117-3.828 2.095-3.016 10.706-4.756 24.437-1.508 13.963 3.248 33.396 5.568 59.811-5.684 10.356-4.408 16.058-10.44 16.407-17.284.465-9.048-8.145-19.14-22.807-27.26-18.968-10.324-44.568-15.312-47.128-15.776L92.392 19.72l-.581-1.044 23.854-13.92h.233c.233 0 27.694 4.988 47.709 16.008 15.127 8.236 23.854 18.792 23.389 28.304-.349 7.424-6.284 13.688-17.105 18.328-26.648 11.368-46.313 9.048-60.51 5.684-12.683-3.016-21.294-1.74-23.272 1.044-.466.696-.466 1.624.116 2.552.815 1.044 3.026 3.364 4.19 4.176l-.815.928ZM131.258 105.096c-8.494 0-15.825-1.276-21.993-2.784-6.749-1.624-12.8-2.088-17.221-1.508l-.117-1.16c4.538-.696 10.822-.116 17.688 1.508 13.963 3.248 33.396 5.568 59.81-5.684 11.055-4.756 16.757-11.252 16.408-18.792h1.163c.233 5.684-2.443 13.688-17.105 19.952-15.011 6.496-27.811 8.468-38.633 8.468ZM90.47 83.517l-.11 28.188 1.163.004.11-28.188-1.163-.004ZM70.169 96.332l-.356 25.981 1.163.016.356-25.981-1.163-.016ZM45.786 69.245l-.35 19.832 1.163.02.35-19.832-1.163-.02Z" fill="#282C34"/><path d="m88.323 21.396-.357 25.981 1.164.016.356-25.981-1.163-.016ZM186.996 58.928h-1.163v18.676h1.163V58.928ZM89.918 80.637l-20.49 11.945.587 1.002 20.49-11.946-.587-1.001ZM90.673 110.581l-20.49 11.945.586 1.002 20.491-11.946-.587-1.001Z" fill="#282C34"/><path d="M70.167 123.424c-10.007-5.336-17.338-12.18-17.455-12.296l.815-.812c.116.116 7.447 6.844 17.222 12.064l-.582 1.044ZM10.123 137.112c-4.305-2.436-6.632-5.568-6.632-8.816h1.163c0 2.9 2.095 5.684 5.935 7.888l-.466.928ZM27.81 141.172c-3.607 0-6.865-.348-9.774-1.044l.233-1.16c2.793.696 6.05 1.044 9.542 1.044 12.683 0 23.04-5.22 23.04-11.716h1.163c0 7.192-10.589 12.876-24.203 12.876Z" fill="#282C34"/><path d="M52.014 99.18h-1.163v29.58h1.163V99.18ZM4.654 99.528H3.491v29.348h1.163V99.528Z" fill="#282C34"/><path d="M27.927 112.172c13.175 0 23.855-6.18 23.855-13.804 0-7.624-10.68-13.804-23.855-13.804-13.174 0-23.854 6.18-23.854 13.804 0 7.624 10.68 13.804 23.854 13.804Z" fill="#FF59A3"/><path d="M27.927 112.752c-13.498 0-24.436-6.496-24.436-14.384s10.938-14.384 24.436-14.384 24.436 6.496 24.436 14.384-10.938 14.384-24.436 14.384Zm0-27.608c-12.8 0-23.273 5.916-23.273 13.224s10.473 13.224 23.273 13.224c12.8 0 23.273-5.916 23.273-13.224S40.727 85.144 27.927 85.144Z" fill="#fff"/><path d="M-4354-2766h8057v-2h-8057v2Zm8058 1v5485h2v-5485h-2Zm-1 5486h-8057v2h8057v-2Zm-8058-1v-5485h-2v5485h2Zm1 1c-.55 0-1-.45-1-1h-2c0 1.66 1.34 3 3 3v-2Zm8058-1c0 .55-.45 1-1 1v2c1.66 0 3-1.34 3-3h-2Zm-1-5486c.55 0 1 .45 1 1h2c0-1.66-1.34-3-3-3v2Zm-8057-2c-1.66 0-3 1.34-3 3h2c0-.55.45-1 1-1v-2Z" fill="#000" fill-opacity=".1"/></svg>