<svg width="24" height="24" fill="none" xmlns="http://www.w3.org/2000/svg"><g id="servicing"><path id="servicing_2" d="m5.276 11.748.429.26.258-.429a1.542 1.542 0 0 1 1.321-.755c.849 0 1.55.7 1.55 1.581v4.54c0 .881-.701 1.582-1.55 1.582a1.541 1.541 0 0 1-1.32-.755l-.26-.43-.428.26a1.15 1.15 0 0 1-.6.168A1.19 1.19 0 0 1 3.5 16.568V11.51c0-4.985 4.038-9.011 9-9.011s9 4.026 9 9.011V16.568a1.19 1.19 0 0 1-1.177 1.202 1.15 1.15 0 0 1-.41-.075l-.594-.226-.08.631-.002.023-1.065.334c-.144.046-.297.07-.456.07-.849 0-1.55-.7-1.55-1.581v-4.54c0-.881.701-1.582 1.55-1.582.555 0 1.046.299 1.32.755l.26.43.428-.26a1.15 1.15 0 0 1 .985-.102l.695.246-.029-.737a8.88 8.88 0 0 0-8.875-8.52 8.88 8.88 0 0 0-8.875 8.52l-.03.737.696-.246a1.152 1.152 0 0 1 .985.101Zm13.48 7.434.42-.736c-.327 1.354-1.529 2.351-2.95 2.351h-1.951l-.095.377A1.743 1.743 0 0 1 12.5 22.5c-.951 0-1.735-.785-1.735-1.77s.784-1.77 1.735-1.77c.802 0 1.486.557 1.68 1.325l.096.377h1.949a2.914 2.914 0 0 0 2.531-1.48ZM3.618 12.777v3.791c0 .582.466 1.067 1.058 1.067.593 0 1.06-.485 1.06-1.067v-3.784c0-.583-.467-1.068-1.06-1.068-.59 0-1.055.482-1.058 1.061Zm17.764.004v-.001a1.063 1.063 0 0 0-1.059-1.064c-.591 0-1.058.486-1.058 1.068v3.784c0 .582.466 1.067 1.058 1.067.593 0 1.06-.485 1.06-1.067V12.78Zm-2.235 4.165v-4.54c0-.792-.633-1.447-1.431-1.447s-1.432.655-1.432 1.446v4.54c0 .792.634 1.447 1.432 1.447.797 0 1.431-.655 1.431-1.446Zm-13.294-4.54v4.54c0 .791.634 1.446 1.431 1.446.798 0 1.432-.655 1.432-1.446v-4.54c0-.792-.634-1.447-1.432-1.447-.797 0-1.431.655-1.431 1.446Z" stroke="#fff"/></g></svg>