<svg width="24" height="24" fill="none" xmlns="http://www.w3.org/2000/svg"><g id="telegram"><g id="Union" fill="#4EA4F6"><path d="M15.298 7.851s-2.194.921-2.84 1.21c-1.688.719-6.553 2.762-6.553 2.762-1.153.46-.478.892-.478.892s.984.345 1.828.604c.844.26 1.294-.029 1.294-.029s1.968-1.323 3.965-2.733c1.406-.979 1.068-.173.73.172a108.35 108.35 0 0 1-2.952 2.878c-.45.403-.225.748-.028.92.572.497 1.92 1.397 2.532 1.807.17.114.284.19.308.208.14.115.928.633 1.406.518.478-.115.535-.777.535-.777s.365-2.36.703-4.518c.062-.423.125-.838.183-1.225.152-1.006.275-1.822.295-2.113.084-.978-.928-.576-.928-.576Z"/><path d="M23 12c0 6.075-4.925 11-11 11S1 18.075 1 12 5.925 1 12 1s11 4.925 11 11Zm-1.692 0a9.308 9.308 0 1 0-18.616 0 9.308 9.308 0 0 0 18.616 0Z"/></g></g></svg>