<svg width="24" height="24" fill="none" xmlns="http://www.w3.org/2000/svg"><g id="tik-tok"><g id="Group 2"><circle id="Oval" cx="11.844" cy="11.844" r="10.594" stroke="#282C34" stroke-width="1.125"/><g id="Group 17"><mask id="mask0_75_13047" style="mask-type:luminance" maskUnits="userSpaceOnUse" x="5" y="4" width="15" height="15"><path id="Mask" fill="#fff" d="M5.337 4.12h14.178v14.178H5.337z"/></mask><g mask="url('#mask0_75_13047')"><g id="Group 17_2"><g id="Group 3"><mask id="mask1_75_13047" style="mask-type:luminance" maskUnits="userSpaceOnUse" x="5" y="9" width="6" height="8"><path id="Clip 2" fill-rule="evenodd" clip-rule="evenodd" d="M5.938 9.098h4.883v7.82H5.938v-7.82Z" fill="#fff"/></mask><g mask="url('#mask1_75_13047')"><path id="Fill 1" fill-rule="evenodd" clip-rule="evenodd" d="M10.821 9.7v-.553a4.066 4.066 0 0 0-.579-.05 4.295 4.295 0 0 0-2.461 7.82A4.29 4.29 0 0 1 10.82 9.7Z" fill="#25F4EE"/></g></g><path id="Fill 4" fill-rule="evenodd" clip-rule="evenodd" d="M10.925 15.953a1.963 1.963 0 0 0 1.96-1.878V4.713h1.71a3.212 3.212 0 0 1-.05-.593h-2.339v9.354a1.964 1.964 0 0 1-1.96 1.89 1.99 1.99 0 0 1-.904-.226c.367.51.956.812 1.583.815Z" fill="#25F4EE"/><path id="Fill 6" fill-rule="evenodd" clip-rule="evenodd" d="M17.79 7.89v-.521c-.63 0-1.245-.185-1.77-.534.46.535 1.082.905 1.77 1.054Z" fill="#25F4EE"/><path id="Fill 8" fill-rule="evenodd" clip-rule="evenodd" d="M16.02 6.835a3.222 3.222 0 0 1-.8-2.126h-.625a3.241 3.241 0 0 0 1.425 2.126Z" fill="#FE2C55"/><path id="Fill 10" fill-rule="evenodd" clip-rule="evenodd" d="M10.242 11.437a1.963 1.963 0 0 0-.905 3.702 1.96 1.96 0 0 1 1.588-3.109c.197.002.392.033.58.09V9.74a4.14 4.14 0 0 0-.58-.045h-.104v1.81a2 2 0 0 0-.579-.068Z" fill="#FE2C55"/><g id="Group 14"><mask id="mask2_75_13047" style="mask-type:luminance" maskUnits="userSpaceOnUse" x="7" y="7" width="12" height="12"><path id="Clip 13" fill-rule="evenodd" clip-rule="evenodd" d="M7.78 7.89h10.688v10.397H7.78V7.89Z" fill="#fff"/></mask><g mask="url('#mask2_75_13047')"><path id="Fill 12" fill-rule="evenodd" clip-rule="evenodd" d="M17.79 7.89V9.7a5.552 5.552 0 0 1-3.245-1.055v4.756a4.303 4.303 0 0 1-4.303 4.294 4.261 4.261 0 0 1-2.462-.778 4.295 4.295 0 0 0 7.44-2.923V9.25a5.56 5.56 0 0 0 3.248 1.041v-2.33a3.29 3.29 0 0 1-.678-.073Z" fill="#FE2C55"/></g></g><path id="Fill 15" fill-rule="evenodd" clip-rule="evenodd" d="M14.545 13.401V8.645a5.552 5.552 0 0 0 3.25 1.041v-1.81a3.24 3.24 0 0 1-1.775-1.04 3.24 3.24 0 0 1-1.425-2.128h-1.71v9.367a1.964 1.964 0 0 1-3.553 1.073 1.963 1.963 0 0 1 .905-3.702c.197.002.392.032.58.09v-1.81a4.29 4.29 0 0 0-3.041 7.24 4.255 4.255 0 0 0 2.466.73 4.304 4.304 0 0 0 4.303-4.295Z" fill="#282C34"/></g></g></g></g></g></svg>