<svg width="24" height="24" fill="none" xmlns="http://www.w3.org/2000/svg"><g id="vk_tarifi"><g id="Vector" fill="#07F"><path fill-rule="evenodd" clip-rule="evenodd" d="M12 21.61A9.609 9.609 0 0 0 21.61 12 9.61 9.61 0 1 0 12 21.61ZM12 23c6.075 0 11-4.925 11-11S18.075 1 12 1 1 5.925 1 12s4.925 11 11 11Z"/><path d="M12.245 15.604c-3.564 0-5.597-2.35-5.681-6.259h1.785c.059 2.87 1.375 4.085 2.417 4.336V9.345h1.681v2.475c1.03-.106 2.111-1.234 2.476-2.475h1.681c-.28 1.53-1.453 2.657-2.287 3.12.834.376 2.17 1.36 2.678 3.14h-1.85c-.398-1.191-1.388-2.112-2.698-2.237v2.236h-.202Z"/></g></g></svg>