<svg width="24" height="24" fill="none" xmlns="http://www.w3.org/2000/svg"><g id="32px/wink_1000-100"><path id="logo_wink copy" fill-rule="evenodd" clip-rule="evenodd" d="m4.216 7.413.083-.094L9.192 2.49a.836.836 0 0 1 1.174 0l9.035 8.913a.836.836 0 0 1 0 1.19l-9.035 8.915a.836.836 0 0 1-1.174 0l-4.893-4.828a.836.836 0 0 1 0-1.19L7.834 12l-3.536-3.49a.836.836 0 0 1-.083-1.096Zm13.408 4.586-7.846-7.74-3.703 3.654 3.538 3.491a.836.836 0 0 1 .082 1.096l-.082.094-3.538 3.491 3.703 3.655 7.846-7.741Z" fill="#FF4F12"/></g></svg>