<svg width="24" height="24" fill="none" xmlns="http://www.w3.org/2000/svg"><g id="icon_youtube"><g id="icon_youtube_2" fill="#fff"><path d="m15 12-5.25 3V9L15 12Z"/><path d="M11.986 4.5H12.058a81.329 81.329 0 0 1 .914.006c.598.007 1.412.02 2.275.045.861.026 1.777.065 2.577.123.778.057 1.51.137 1.967.26a3.191 3.191 0 0 1 2.257 2.233c.23.839.338 2.07.393 3.038a39.735 39.735 0 0 1 .059 1.753v.081a22.833 22.833 0 0 1-.007.49c-.006.324-.02.772-.046 1.268-.051.968-.156 2.202-.387 3.037a3.19 3.19 0 0 1-2.257 2.233c-.457.123-1.19.202-1.966.259-.8.058-1.716.097-2.578.123a121.705 121.705 0 0 1-3.189.05L12 19.5h-.07a80.296 80.296 0 0 1-.914-.006c-.598-.007-1.413-.02-2.275-.045a61.968 61.968 0 0 1-2.578-.123c-.777-.057-1.51-.137-1.966-.26a3.19 3.19 0 0 1-2.258-2.232c-.23-.841-.335-2.074-.386-3.042A39.164 39.164 0 0 1 1.5 12.04v-.078a24.48 24.48 0 0 1 .006-.488c.007-.322.02-.768.045-1.263.05-.966.152-2.194.375-3.027V7.18a3.19 3.19 0 0 1 2.258-2.234c.457-.123 1.188-.203 1.966-.261.8-.06 1.715-.1 2.577-.127a122.863 122.863 0 0 1 3.188-.058h.07Zm7.419 1.883h-.003c-.3-.082-.897-.155-1.687-.213a60.613 60.613 0 0 0-2.513-.12A120.379 120.379 0 0 0 12.055 6h-.133a78.377 78.377 0 0 0-.901.008c-.592.008-1.396.022-2.247.049-.851.027-1.743.066-2.513.124-.79.059-1.387.133-1.688.214H4.57a1.69 1.69 0 0 0-1.195 1.177c-.178.663-.276 1.745-.326 2.716A38.768 38.768 0 0 0 3 11.968v.064a20.39 20.39 0 0 0 .006.465c.007.311.02.74.045 1.216.051.972.153 2.058.335 2.725v.001a1.691 1.691 0 0 0 1.197 1.178h.002c.3.082.898.155 1.688.213.769.056 1.66.094 2.512.12a120.169 120.169 0 0 0 3.148.05h.134a78.195 78.195 0 0 0 .901-.006 120.15 120.15 0 0 0 2.247-.045 60.593 60.593 0 0 0 2.512-.12c.79-.057 1.387-.13 1.688-.211h.002a1.691 1.691 0 0 0 1.196-1.179l.001-.003c.182-.66.284-1.744.335-2.719a37.644 37.644 0 0 0 .05-1.684l.001-.025v-.038a18.778 18.778 0 0 0-.008-.464 38.35 38.35 0 0 0-.049-1.216c-.055-.973-.159-2.059-.342-2.728v-.001a1.691 1.691 0 0 0-1.196-1.178Z"/></g></g></svg>